<?xml version="1.0" encoding="utf-8"?>
<!-- Generator: Adobe Illustrator 27.5.0, SVG Export Plug-In . SVG Version: 6.00 Build 0)  -->
<svg version="1.1" xmlns="http://www.w3.org/2000/svg" xmlns:xlink="http://www.w3.org/1999/xlink" x="0px" y="0px"
	 viewBox="0 0 500 500" style="enable-background:new 0 0 500 500;" xml:space="preserve">
<g id="BACKGROUND">
	<rect style="fill:#000;" width="500" height="500"/>
</g>
<g id="OBJECT">
	<g>
		<path style="fill:#F5F5F5;" d="M119.077,239.886l13.257-7.654c-1.386-5.211-3.46-10.139-6.111-14.691l-14.763,3.956
			l-11.063-11.063l3.943-14.717c-4.564-2.642-9.501-4.708-14.723-6.08l-7.609,13.18H66.363l-7.571-13.113
			c-5.225,1.396-10.165,3.481-14.725,6.148l3.907,14.582L36.91,221.497l-14.529-3.893c-2.656,4.574-4.733,9.525-6.113,14.762
			l13.024,7.52v15.646l-13.02,7.517c1.381,5.237,3.459,10.188,6.118,14.762l14.519-3.891l11.063,11.063L44.07,299.55
			c4.562,2.668,9.504,4.754,14.73,6.149l7.562-13.098h15.646l7.6,13.164c5.224-1.372,10.163-3.438,14.728-6.08l-3.939-14.701
			l11.063-11.063l14.754,3.953c2.653-4.552,4.728-9.48,6.116-14.691l-13.253-7.652V239.886z M74.302,280.157
			c-17.925,0-32.455-14.531-32.455-32.455c0-17.924,14.531-32.455,32.455-32.455c17.925,0,32.455,14.531,32.455,32.455
			C106.757,265.626,92.226,280.157,74.302,280.157z"/>
		<ellipse style="fill:none;" cx="275.618" cy="421.782" rx="208.112" ry="26.452"/>
		<path style="fill:#E8A600;" d="M118.731,247.701v-14.914c0-6.848,6.556-12.399,14.643-12.399h151.73l10.588-18.529
			c1.311-2.295,4.057-3.753,7.068-3.753h35.609c4.336,0,7.852,2.977,7.852,6.648v192.941c-0.169,1.835-0.929,7.491-5.536,12.288
			c-6.385,6.649-14.979,6.254-16.267,6.174H118.731V247.701z"/>
		<g>
			<path style="fill:none;" d="M288.808,239.309l-22.026-23.273l-2.853,13.104l-23.313-23.799l-4.998,12.227l-17.307-21.345
				l-14.864,8.195l-12.912-22.299l-14.111,11.253l-18.471-20.713c14.201-31.132,31.182-54.503,44.489-70.277
				c46.04,18.819,92.081,37.638,138.121,56.458c-13.411,23.11-27.333,50.226-40.203,81.237L288.808,239.309z"/>
			<path style="fill:#F5F5F5;" d="M191.614,186.926l12.912,22.299l14.864-8.195l17.307,21.345l4.998-12.227l23.312,23.799
				l2.853-13.104l22.026,23.273l11.551,0.767c-0.172,0.415-0.346,0.823-0.518,1.24c-13.736,33.281-23.469,64.31-30.464,91.676
				l-138.121-56.458c1.75-23.182,6.958-57.035,22.743-94.832c1.289-3.086,2.61-6.097,3.954-9.044l18.472,20.713L191.614,186.926z"/>
			
				<path style="fill:none;stroke:#262626;stroke-width:0.274;stroke-linecap:round;stroke-linejoin:round;stroke-miterlimit:10;" d="
				M202.441,102.381"/>
			
				<polyline style="fill:none;stroke:#262626;stroke-width:0.274;stroke-linecap:round;stroke-linejoin:round;stroke-miterlimit:10;" points="
				300.359,240.075 288.808,239.309 266.782,216.035 263.929,229.139 240.617,205.34 235.618,217.567 218.311,196.222 			"/>
			
				<polyline style="fill:none;stroke:#262626;stroke-width:0.274;stroke-linecap:round;stroke-linejoin:round;stroke-miterlimit:10;" points="
				301.438,244.883 289.887,244.116 267.861,220.843 265.008,233.947 241.696,210.147 236.698,222.375 219.391,201.03 			"/>
		</g>
		<g>
			<path style="fill:#none;" d="M64.213,128.715c-3.639,0.766-5.967,4.337-5.201,7.976c8.452,24.507,16.624,52.501,23.308,83.676
				c7.128,33.243,11.239,63.923,13.502,91.125c0.093,0.439,0.628,2.764,2.91,4.252c1.443,0.941,3.246,1.332,5.065,0.949
				l127.304-26.808c3.639-0.766,5.967-4.337,5.201-7.976c-1.613-25.269-5.329-54.617-12.924-86.714
				c-5.188-21.922-11.383-41.738-17.822-59.292c-14.721-9.217-29.443-18.435-44.164-27.652L64.213,128.715z"/>
			<path style="fill:#D6D6D6;" d="M173.151,142.727l32.406-6.824l-44.164-27.652l6.544,31.076
				C168.437,141.705,170.772,143.228,173.151,142.727z"/>
			
				<path style="fill:none;stroke:#262626;stroke-width:0.274;stroke-linecap:round;stroke-linejoin:round;stroke-miterlimit:10;" d="
				M161.392,108.251l6.544,31.076c0.501,2.379,2.836,3.902,5.215,3.401l32.406-6.824"/>
			<g>
				<path style="fill:#D6D6D6;" d="M148.256,229.675c-0.938-4.453-1.353-8.111-1.246-10.971c0.107-2.86,0.903-5.629,2.389-8.307
					c0.846-1.597,1.883-3.037,3.111-4.321c1.227-1.282,2.329-2.599,3.307-3.948c0.976-1.347,1.736-2.79,2.282-4.324
					c0.544-1.534,0.587-3.394,0.125-5.584c-0.779-3.697-2.342-6.069-4.69-7.112c-2.348-1.043-4.92-1.27-7.711-0.682
					c-4.002,0.843-6.522,2.538-7.562,5.081c-1.042,2.545-1.353,5.745-0.935,9.598l-14.605,3.076
					c-0.779-3.698-0.883-7.184-0.311-10.458c0.571-3.273,1.748-6.201,3.53-8.784c1.781-2.581,4.119-4.769,7.014-6.562
					c2.892-1.792,6.227-3.085,10.002-3.88c8.152-1.717,14.936-1.41,20.354,0.917c5.416,2.329,8.912,7.228,10.486,14.701
					c0.509,2.417,0.708,4.581,0.6,6.496c-0.11,1.915-0.501,3.712-1.171,5.39c-0.672,1.679-1.59,3.311-2.753,4.896
					c-1.165,1.586-2.509,3.248-4.034,4.988c-1.391,1.634-2.48,3.105-3.269,4.413c-0.788,1.31-1.321,2.625-1.594,3.942
					c-0.274,1.32-0.348,2.656-0.22,4.008c0.126,1.354,0.366,2.861,0.716,4.52L148.256,229.675z M152.405,251.623l-3.124-14.832
					l15.285-3.219l3.124,14.832L152.405,251.623z"/>
			</g>
			
				<path style="fill:none;stroke:#262626;stroke-width:0.274;stroke-linecap:round;stroke-linejoin:round;stroke-miterlimit:10;" d="
				M64.213,128.715c-3.639,0.766-5.967,4.337-5.201,7.976c8.452,24.507,16.624,52.501,23.308,83.676
				c7.128,33.243,11.239,63.923,13.502,91.125c0.093,0.439,0.628,2.764,2.91,4.252c1.443,0.941,3.246,1.332,5.065,0.949
				l127.304-26.808c3.639-0.766,5.967-4.337,5.201-7.976c-1.613-25.269-5.329-54.617-12.924-86.714
				c-5.188-21.922-11.383-41.738-17.822-59.292c-14.721-9.217-29.443-18.435-44.164-27.652L64.213,128.715z"/>
		</g>
		<path style="fill:#FFC001;" d="M77.039,247.701h223.427c5.834,0,11.389,4.729,12.408,10.564l25.721,147.33
			c1.019,5.834-2.885,10.563-8.719,10.563H106.449c-5.834,0-11.389-4.729-12.408-10.563L68.32,258.265
			C67.302,252.431,71.205,247.701,77.039,247.701z"/>
		<g>
			<polygon style="fill:#F7A99C;" points="347.794,145.141 357.26,142.114 372.417,146.47 372.027,148.649 361.82,148.649 
				355.821,154.634 350.597,155.673 			"/>
			<g>
				<path style="fill:#262626;" d="M356.165,144.254c2.591-1.435,9.17-4.591,16.968-3.057c2.396,0.471,6.788,1.335,9.554,5.045
					c1.484,1.99,1.893,3.984,2.216,5.656c0.931,4.809-0.663,6.728-0.688,14.752c-0.009,3.003,0.21,4.164,0.917,5.274
					c1.37,2.148,3.095,1.783,6.038,3.822c0.41,0.284,4.565,3.239,6.267,8.255c1.219,3.591-0.052,4.607,1.376,6.573
					c2.204,3.036,6.037,1.725,7.949,4.28c2.225,2.975-0.29,8.333-0.612,9.019c-6.104,13.005-44.602,19.264-61.223,2.446
					c-0.579-0.586-10.118-10.435-7.337-17.274c1.602-3.938,6.725-5.492,6.726-10.089c0-1.993-0.963-2.1-1.452-5.503
					c-0.349-2.428-0.82-5.701,0.841-8.331c1.933-3.061,5.116-2.656,5.671-5.119c0.435-1.931-1.345-2.964-1.684-5.023
					C347.326,152.751,348.651,149.356,356.165,144.254z"/>
				<path style="fill:none;stroke:#262626;stroke-width:0.5;stroke-linecap:round;stroke-linejoin:round;stroke-miterlimit:10;" d="
					M381.961,145.897c2.131,2.072,4.625,5.217,5.159,9.363c0.749,5.811-3.01,8.484-1.376,12.58c1.5,3.76,5.066,2.503,9.783,7.828
					c1.47,1.659,4.687,5.291,5.35,10.471c0.554,4.329-1.037,6.922,0.764,8.561c0,0,0.57,0.518,5.783,1.493l0,0"/>
				<path style="fill:none;stroke:#262626;stroke-width:0.5;stroke-linecap:round;stroke-linejoin:round;stroke-miterlimit:10;" d="
					M347.294,162.209c-2.547,1.135-5.799,3.105-6.798,6.427c-1.2,3.992,2.064,5.917,1.376,10.471
					c-0.905,5.997-7.715,6.454-7.567,12.076c0.076,2.904,1.042,5.365,4.28,9.631c2.674,3.523,5.692,5.155,6.344,5.503
					c1.108,0.593,2.098,0.977,2.829,1.223"/>
			</g>
			<path style="fill:#FF7129;" d="M347.294,143.26c-24.177,0.113-41.868,10.344-43.333,21.371
				c-1.471,11.073,13.381,23.242,19.567,28.311c6.597,5.406,12.939,8.679,17.348,10.614l18.676-19.866l-29.451-15.642l21.259-9.508
				L347.294,143.26z"/>
			<path style="fill:#FFC001;" d="M372.937,183.69c-1.993,0-3.986,0-5.979,0c-2.469,0-4.937,0-7.406,0
				c-3.694,2.185-9.018,6.013-13.291,12.324c-4.947,7.307-6.252,14.643-7.157,24.476c-1.004,10.909-1.434,26.77,0.226,45.6
				l67.288-0.543c0-11.623,0-23.246,0-34.868c-0.328-8.799-1.365-16.035-2.345-21.309c-1.584-8.523-2.881-11.176-4.282-13.254
				c-3.978-5.896-9.665-8.436-12.235-9.584C381.744,183.848,376.238,183.572,372.937,183.69z"/>
			<g>
				<defs>
					<path id="SVGID_1_" d="M372.937,183.69c-1.993,0-3.986,0-5.979,0c-2.469,0-4.937,0-7.406,0
						c-3.694,2.185-9.018,6.013-13.291,12.324c-4.947,7.307-6.252,14.643-7.157,24.476c-1.004,10.909-1.639,26.227,0.02,45.057
						h67.494c0-11.623,0-23.246,0-34.868c-0.328-8.799-1.365-16.035-2.345-21.309c-1.584-8.523-2.881-11.176-4.282-13.254
						c-3.978-5.896-9.665-8.436-12.235-9.584C381.744,183.848,376.238,183.572,372.937,183.69z"/>
				</defs>
				<clipPath id="SVGID_00000059311896692756454370000005492856312640073104_">
					<use xlink:href="#SVGID_1_"  style="overflow:visible;"/>
				</clipPath>
			</g>
			<g>
				<path style="fill:#F7A99C;" d="M366.245,189.113L366.245,189.113c3.763,0.014,6.825-3.024,6.839-6.787l0.056-14.662
					l-13.627-0.052l-0.056,14.662C359.443,186.036,362.482,189.098,366.245,189.113z"/>
				<path style="fill:#FF7769;" d="M359.473,178.169l8.875-4.559c-0.09,0.768-0.594,4.368-3.76,6.854
					c-2.021,1.587-4.145,1.95-5.126,2.053L359.473,178.169z"/>
				<path style="fill:#F7A99C;" d="M373.471,163.121c0.043-0.221,0.627-0.556,0.806-0.671c0.303-0.194,0.631-0.348,0.973-0.458
					c0.665-0.214,1.395-0.264,2.079-0.107c1.359,0.311,2.563,1.453,2.789,2.851c0.131,0.812-0.056,1.652-0.404,2.398
					c-0.523,1.121-1.411,2.063-2.482,2.68c-0.888,0.512-1.899,0.801-2.921,0.862c-0.205,0.012-2.299-0.036-2.283-0.117
					C372.508,168.079,372.99,165.6,373.471,163.121z"/>
				<path style="fill:#F7A99C;" d="M375.339,163.263c-0.161,1.094-1.123,6.864-6.324,10.941c-0.958,0.751-7.328,5.744-13.155,3.307
					c-7.488-3.131-6.672-15.431-6.619-16.097c0.178-2.252,0.704-8.885,6.197-12.424c4.483-2.888,9.341-1.826,10.029-1.664
					c0.726,0.171,5.35,1.337,8.18,5.872C376.216,157.313,375.603,161.473,375.339,163.263z"/>
				<path style="fill:#262626;" d="M353.491,161.422c-0.121,0.96-0.861,1.658-1.654,1.558c-0.793-0.1-1.338-0.959-1.217-1.919
					c0.121-0.96,0.861-1.658,1.654-1.559C353.067,159.603,353.612,160.462,353.491,161.422z"/>
				<path style="fill:#262626;" d="M362.144,162.509c-0.121,0.96-0.861,1.658-1.654,1.558c-0.793-0.1-1.338-0.959-1.217-1.919
					c0.121-0.96,0.861-1.658,1.654-1.558C361.72,160.69,362.265,161.549,362.144,162.509z"/>
				
					<path style="fill:none;stroke:#262626;stroke-width:0.7131;stroke-linecap:round;stroke-linejoin:round;stroke-miterlimit:10;" d="
					M356.104,162.859l-1.327,1.792c-0.244,0.329-0.152,0.797,0.198,1.01l1.218,0.742"/>
				<path style="fill:#FF7769;" d="M365.047,167.032c-0.135,1.077-1.118,1.841-2.196,1.706c-1.077-0.135-1.841-1.118-1.706-2.196
					c0.135-1.077,1.118-1.841,2.196-1.706C364.418,164.971,365.182,165.955,365.047,167.032z"/>
				
					<path style="fill:none;stroke:#262626;stroke-width:0.7131;stroke-linecap:round;stroke-linejoin:round;stroke-miterlimit:10;" d="
					M374.385,168.048c-0.006-0.216-0.025-1.679,1.149-2.735c0.92-0.827,1.99-0.881,2.281-0.886"/>
				
					<path style="fill:none;stroke:#262626;stroke-width:0.7131;stroke-linecap:round;stroke-linejoin:round;stroke-miterlimit:10;" d="
					M375.421,165.602c0.065-0.01,0.852-0.119,1.402,0.475c0.452,0.489,0.411,1.094,0.402,1.195"/>
				<path style="fill:#FF7769;" d="M350.261,163.923c-0.373-0.047-0.731,0.02-1.05,0.164c0.038,1.056,0.139,2.336,0.371,3.694
					c0.063,0.014,0.124,0.035,0.189,0.043c1.078,0.135,2.061-0.628,2.196-1.706C352.102,165.041,351.339,164.058,350.261,163.923z"
					/>
				<path style="fill:#262626;" d="M347.889,153.19c-0.26,0.828-0.327,1.743-0.016,2.554c0.31,0.809,0.999,1.464,1.823,1.732
					c1.052,0.342,2.318,0.07,2.971-0.859c0,0,0.315,0.631,1.204,0.831c0.884,0.2,1.882-0.821,1.891-0.831
					c-0.039,0.041,0.808,0.643,0.898,0.67c0.267,0.079,0.558,0.028,0.817-0.075c0.145-0.057,1.179-0.489,1.18-0.681
					c-0.003,0.682,1.393,0.346,1.658,0.163c0.167-0.115,0.813-0.587,0.813-0.822c0,0-0.035,1.261,0.768,1.404
					c0.802,0.143,2.035-1.089,2.035-1.089s0.516,1.204,1.003,1.232c0.487,0.029,1.634-0.975,1.634-0.975s0.115,0.172,0.688,0.688
					c0.573,0.516,1.691-0.688,1.691-0.688l4.414,7.682c0,0-0.057-1.068,0.602-1.537c0.659-0.469,1.547-0.67,1.547-0.671
					c0.231-0.24,0.271-1.078,0.324-1.403c0.084-0.513,0.132-1.032,0.138-1.552c0.011-0.941-0.112-1.889-0.389-2.789
					c-0.543-1.765-1.632-3.316-2.862-4.672c-2.589-2.854-6.003-5.098-9.789-5.959c-1.32-0.3-2.68-0.44-4.033-0.394
					c-1.949,0.067-3.749,0.746-5.429,1.728C351.035,148.301,348.777,150.409,347.889,153.19z"/>
				<path style="fill:#000;" d="M356.05,170.677l4.395-1.047c-0.266-1.237-1.452-2.027-2.599-1.834
					C356.594,168.006,355.706,169.334,356.05,170.677z"/>
			</g>
			<path style="fill:#F7A99C;" d="M388.828,220.277c-10.38,16.289-21.535,23.943-29.72,27.903
				c-17.011,8.231-48.262,13.61-51.984,15.694c-1.318,0.738-2.083,0.83-3.612,1.013c-0.539,0.065-1.413,0.128-2.153-0.379
				c-0.204-0.14-0.555-0.381-0.657-0.794c-0.176-0.716,0.47-1.648,0.47-1.648c-0.155,0.117-0.659,0.47-1.381,0.456
				c-0.207-0.004-0.937-0.048-1.431-0.579c-0.57-0.613-0.632-1.666-0.109-2.577c-0.997,0.928-2.358,0.921-3.015,0.256
				c-0.423-0.429-0.651-1.229-0.345-1.919c0.214-0.481,0.606-0.726,0.77-0.816c-0.367,0.103-1.366,0.327-2.329-0.174
				c-0.273-0.142-0.724-0.376-0.931-0.878c-0.307-0.742,0.149-1.512,0.233-1.653c0.452-0.762,1.223-1.032,2.547-1.458
				c2.724-0.877,5.658-1.718,5.658-1.718l-5.311-2.157c-0.699-0.681-1.002-1.624-0.728-2.354c0.395-1.053,2.011-1.712,3.524-0.938
				c3.438,0.839,6.876,1.678,10.313,2.516c0,0,3.395,0.702,6.234,0.238c2.839-0.464,23.899-12.506,28.061-15.697
				c4.162-3.191,22.152-20.069,22.152-20.069L388.828,220.277z"/>
			<path style="fill:#2390E2;" d="M343.915,266.09c0,0-17.434,57.979-18.453,66.339c-1.02,8.36,6.831,73.815,6.831,73.815h23.959
				l12.642-64.843c0,0,1.631,11.623,9.38,19.779c7.749,8.156,36.092,36.296,36.092,36.296l17.944-17.536l-21.614-39.558
				c-1.224-8.406-1.868-15.521-2.233-20.865c-0.576-8.441-0.864-12.662-0.436-17.659c0.87-10.148,3.141-11.893,2.958-18.8
				c-0.112-4.226-1.139-10.255-5.473-17.511C384.98,265.728,364.447,265.909,343.915,266.09z"/>
			<path style="fill:#F7A99C;" d="M354.485,406.244v24.333H315.47l1.02-7.001c0,0,12.234-6.865,14.138-8.428
				c1.903-1.563,3.942-4.622,4.35-5.574c0.408-0.952,0-3.331,0-3.331H354.485z"/>
			<path style="fill:#FF7129;" d="M356.456,415.42c-0.476-0.132-1.195-0.254-1.971-0.034c-1.995,0.567-2.519,2.878-3.381,4.112
				c0,0-22.379,0.255-22.379,0.255c0.047-1.134,0.094-2.269,0.14-3.403c-1.165-0.378-2.329-0.756-3.494-1.134
				c-2.44,2.722-4.814,4.302-6.607,5.257c-2.754,1.467-6.325,2.626-7.779,5.108c-0.706,1.204-0.741,2.428-0.745,2.654
				c-0.011,0.631-0.026,1.516,0.609,2.104c0.472,0.438,1.077,0.5,1.359,0.51c14.444-0.091,28.887-0.181,43.331-0.272
				c0.507,0,0.918-0.411,0.918-0.917V415.42z"/>
			<path style="fill:#5D1113;" d="M312.158,433.364h42.576c0.951,0,1.721-0.771,1.721-1.721v-1.909h-46.018v1.909
				C310.437,432.593,311.208,433.364,312.158,433.364z"/>
			<path style="opacity:0.5;fill:none;" d="M348.945,251.38l0.245,9.784c2.871-1.425,5.769-2.891,8.694-4.4
				c2.889-1.49,5.729-2.983,8.521-4.476c0-2.635,0-5.271,0-7.906L348.945,251.38z"/>
			<path style="fill:#F7A99C;" d="M431.914,380.328l16.986,17.423l-27.935,27.235l-4.157-5.724c0,0,3.968-13.456,4.24-15.904
				c0.271-2.448-0.404-6.061-0.776-7.028c-0.372-0.966-2.325-2.385-2.325-2.385L431.914,380.328z"/>
			<path style="fill:#FF7129;" d="M439.731,385.522c-0.433,0.238-1.033,0.652-1.435,1.352c-1.033,1.799,0.205,3.82,0.449,5.305
				c0,0-15.846,15.805-15.846,15.805c-0.758-0.845-1.517-1.69-2.275-2.535c-1.098,0.543-2.196,1.085-3.293,1.627
				c0.153,3.653-0.444,6.44-1.061,8.376c-0.948,2.973-2.696,6.296-2.004,9.088c0.336,1.355,1.164,2.256,1.319,2.42
				c0.433,0.459,1.039,1.103,1.905,1.081c0.644-0.016,1.12-0.393,1.329-0.584c10.279-10.147,20.557-20.295,30.836-30.443
				c0.363-0.354,0.37-0.935,0.017-1.298L439.731,385.522z"/>
			<path style="fill:#5D1113;" d="M420.539,429.293l30.486-29.721c0.681-0.664,0.694-1.753,0.031-2.434l-1.333-1.367l-32.951,32.124
				l1.333,1.367C418.769,429.943,419.858,429.957,420.539,429.293z"/>
			<path style="fill:none;stroke:#262626;stroke-width:0.5;stroke-linecap:round;stroke-linejoin:round;stroke-miterlimit:10;" d="
				M294.992,248.134c0.393,0.268,0.903,0.595,1.516,0.939c1.091,0.613,2.057,1.025,2.759,1.293c0.942,0.359,2.16,0.744,3.616,1.014"
				/>
			<path style="fill:none;stroke:#262626;stroke-width:0.5;stroke-linecap:round;stroke-linejoin:round;stroke-miterlimit:10;" d="
				M293.843,256.908c0,0,0.49,0.263,1.818-0.022s2.715-1.055,2.715-1.055"/>
			<path style="fill:none;stroke:#262626;stroke-width:0.5;stroke-linecap:round;stroke-linejoin:round;stroke-miterlimit:10;" d="
				M296.719,260.079c0,0,0.514-0.115,1.777-0.696c1.263-0.581,2.434-1.374,2.434-1.374"/>
			<path style="fill:none;stroke:#262626;stroke-width:0.5;stroke-linecap:round;stroke-linejoin:round;stroke-miterlimit:10;" d="
				M300.329,262.463c0,0,1.066-0.437,1.678-0.796c0.611-0.359,1.296-0.979,1.296-0.979"/>
			<path style="fill:#1775AF;" d="M364.667,299.606c0,0-12.535,47.847-13.299,60.229c-0.764,12.382-4.127,46.409-4.127,46.409h9.012
				l12.642-64.843L364.667,299.606z"/>
			<path style="fill:none;stroke:#262626;stroke-width:0.5;stroke-linecap:round;stroke-linejoin:round;stroke-miterlimit:10;" d="
				M374.363,356.05c-1.801-3.223-4.152-8.202-5.469-14.649c-0.268-1.313-0.382-2.142-1.132-9.846
				c-1.005-10.319-1.768-18.773-1.811-19.252c-0.287-3.183-0.727-8.013-1.284-13.996c0,0-0.764-11.847-1.147-17.962"/>
			<path style="fill:none;stroke:#262626;stroke-width:0.5;stroke-linecap:round;stroke-linejoin:round;stroke-miterlimit:10;" d="
				M390.348,265.547c0,0,2.981,57.524,4.357,64.403s4.876,22.013,10.807,29.809c5.931,7.796,19.365,27.43,19.365,27.43"/>
			<path style="fill:none;stroke:#262626;stroke-width:0.5;stroke-linecap:round;stroke-linejoin:round;stroke-miterlimit:10;" d="
				M364.433,300.502c0,0-11.453,46.864-12.26,53.099c-0.806,6.234-4.934,52.643-4.934,52.643"/>
			<polygon style="fill:#FF7129;" points="431.914,380.328 417.947,393.945 419.6,395.387 434.107,382.577 			"/>
			<polygon style="fill:#FF7769;" points="354.485,406.244 334.977,406.244 335.148,408.675 354.485,408.675 			"/>
			<path style="fill:#FF7129;" d="M359.552,183.69c0,0-7.568,27.902-8.955,38.144c-1.387,10.242-1.406,48.459-1.406,48.459h-13.128
				c-0.513-5.777-3.125-37.142,2.695-59.923c2.859-11.192,6.87-16.857,11.063-20.637C353.435,186.474,357.12,184.673,359.552,183.69
				z"/>
			<path style="opacity:0.5;fill:#4450E4;" d="M335.492,262.463c2.041,0.272,4.727,0.422,7.831,0.033
				c2.295-0.287,4.271-0.801,5.866-1.333c0.042-2.459,0.084-4.919,0.125-7.378l-14.28,5.552L335.492,262.463z"/>
			<path style="fill:#FF7129;" d="M416.47,273.808c-4.242-32.055-8.963-56.331-12.153-67.949c-1.252-4.56-3.4-11.293-9.348-16.005
				c-3.635-2.88-7.695-4.219-9.226-4.708c-5.313-1.7-9.954-1.685-12.808-1.456c0,0-5.649,14.312-5.747,19.806
				c-4.801,7.178-12.035,16.129-22.566,24.452c-11.578,9.15-22.86,14.16-30.726,16.935l3.822,20.664c0,0,32.022-11,48.781-19.144
				c-0.214,13.369-0.393,24.653-0.393,24.653L416.47,273.808z"/>
			<path style="opacity:0.5;fill:#4450E4;" d="M366.405,252.287l0.094-5.884c11.813-6.075,18.604-13.32,22.111-17.729
				c4.843-6.088,8.505-13.153,10.046-16.126c2.076-4.006,3.597-7.489,4.643-10.056c0.995,3.77,1.99,7.54,2.985,11.31
				c-2.337,5.497-6.934,14.387-15.61,22.897C381.561,245.639,372.073,250.112,366.405,252.287z"/>
			<path style="fill:none;stroke:#262626;stroke-width:0.5;stroke-linecap:round;stroke-linejoin:round;stroke-miterlimit:10;" d="
				M403.019,203.556c0,0-6.441,14.276-12.29,22.66c-4.112,5.894-11.23,13.607-24.23,20.187c-7.072,3.186-14.498,6.346-22.275,9.432
				c-9.129,3.623-17.984,6.844-26.506,9.711"/>
			<path style="fill:none;stroke:#262626;stroke-width:0.5;stroke-linecap:round;stroke-linejoin:round;stroke-miterlimit:10;" d="
				M383.993,184.641c-1.409,0.084-3.533,0.418-5.586,1.727c-2.458,1.568-3.491,3.689-5.045,6.573
				c-1.332,2.473-3.36,6.088-6.173,10.554c-2.686,3.662-13.952,18.705-27.788,28.324c-5.717,3.974-10.728,6.559-10.728,6.559
				c-6.689,3.449-14.776,6.504-14.776,6.504l0,0"/>
			<path style="fill:none;stroke:#262626;stroke-width:0.5;stroke-linecap:round;stroke-linejoin:round;stroke-miterlimit:10;" d="
				M342.741,199.233c0,0-1.961,3.577-3.203,8.308c-1.242,4.73-2.248,9.681-2.248,9.681"/>
			
				<line style="fill:none;stroke:#262626;stroke-width:0.5;stroke-linecap:round;stroke-linejoin:round;stroke-miterlimit:10;" x1="359.552" y1="183.69" x2="326.126" y2="165.874"/>
			<path style="fill:none;stroke:#000;stroke-width:0.5;stroke-linecap:round;stroke-linejoin:round;stroke-miterlimit:10;" d="
				M324.445,152.432c-2.329,0.28-8.3,1.338-12.688,6.268c-1.24,1.393-3.302,3.709-3.669,7.174
				c-0.691,6.521,5.25,11.168,5.809,11.591"/>
			
				<line style="fill:none;stroke:#262626;stroke-width:0.5;stroke-linecap:round;stroke-linejoin:round;stroke-miterlimit:10;" x1="404.547" y1="226.037" x2="409.362" y2="262.732"/>
		</g>
		<g>
			<path style="fill:#E8A600;" d="M195.964,349.213c-0.828-4.742-1.133-8.56-0.915-11.453c0.218-2.893,1.161-5.546,2.83-7.956
				c0.953-1.447,2.101-2.692,3.447-3.737c1.344-1.044,2.557-2.149,3.641-3.315c1.081-1.164,1.938-2.471,2.57-3.918
				c0.631-1.447,0.745-3.334,0.337-5.666c-0.688-3.937-2.254-6.691-4.697-8.258c-2.444-1.567-5.154-2.351-8.126-2.351
				c-4.261,0-6.987,1.187-8.18,3.557c-1.195,2.371-1.641,5.566-1.341,9.585H169.98c-0.688-3.937-0.67-7.514,0.055-10.73
				c0.724-3.214,2.076-5.947,4.054-8.198c1.977-2.249,4.529-3.978,7.655-5.184c3.123-1.206,6.695-1.809,10.715-1.809
				c8.68,0,15.84,1.769,21.481,5.305c5.64,3.538,9.156,9.283,10.545,17.24c0.449,2.573,0.58,4.822,0.396,6.751
				c-0.187,1.929-0.666,3.677-1.435,5.244c-0.772,1.567-1.802,3.034-3.09,4.4c-1.289,1.367-2.771,2.773-4.447,4.22
				c-1.53,1.367-2.735,2.633-3.617,3.797c-0.882,1.166-1.493,2.392-1.829,3.677c-0.338,1.286-0.465,2.634-0.38,4.039
				c0.084,1.407,0.282,2.995,0.591,4.762H195.964z M199.546,372.481l-2.758-15.793h16.275l2.758,15.793H199.546z"/>
		</g>
		<path style="fill:#4450E4;" d="M40.073,433.459L40.073,433.459c-0.818-3.076,1.012-6.232,4.088-7.05l79.485-21.139l2.962,11.138
			l-79.485,21.139C44.047,438.365,40.891,436.534,40.073,433.459z"/>
		
			<ellipse transform="matrix(0.2337 -0.9723 0.9723 0.2337 -260.7875 460.5182)" style="opacity:0.5;fill:#CDEBF5;" cx="161.766" cy="395.706" rx="39.462" ry="39.462"/>
		<path style="fill:#4450E4;" d="M161.766,351.618c-24.35,0-44.089,19.739-44.089,44.089c0,24.349,19.739,44.089,44.089,44.089
			s44.089-19.739,44.089-44.089C205.854,371.357,186.115,351.618,161.766,351.618z M161.766,432.636
			c-20.396,0-36.93-16.534-36.93-36.93c0-20.396,16.534-36.93,36.93-36.93c20.396,0,36.93,16.534,36.93,36.93
			C198.695,416.102,182.161,432.636,161.766,432.636z"/>
		<g>
			<g>
				<path style="fill:#000;" d="M169.563,421.753c-0.466-0.417-0.775-1.01-0.816-1.683c-0.083-1.355,0.948-2.521,2.304-2.604
					c2.463-0.151,4.896-0.837,7.037-1.986c2.393-1.283,3.954-2.872,4.672-3.705c0.851-0.988,2.623-3.044,3.268-6.091
					c0.897-4.244-0.972-7.907-1.817-9.285c-0.71-1.157-0.347-2.671,0.81-3.381c1.158-0.71,2.673-0.346,3.381,0.81
					c1.433,2.335,3.654,7.113,2.437,12.873c-0.905,4.284-3.322,7.088-4.354,8.285c-1.149,1.333-3.135,3.252-6.073,4.828
					c-2.762,1.481-5.896,2.367-9.061,2.56C170.669,422.415,170.035,422.175,169.563,421.753z"/>
			</g>
		</g>
		<path style="fill:#FDB6D6;" d="M92.683,411.277l-53.855,14.718c-4.382,1.165-6.989,5.662-5.824,10.043
			c1.165,4.382,5.662,6.989,10.043,5.823l54.553-14.509L92.683,411.277z"/>
		
			<line style="fill:none;stroke:#262626;stroke-width:0.5;stroke-linecap:round;stroke-linejoin:round;stroke-miterlimit:10;" x1="92.645" y1="424.378" x2="44.645" y2="436.913"/>
		<path style="fill:none;stroke:#262626;stroke-width:0.5;stroke-linecap:round;stroke-linejoin:round;stroke-miterlimit:10;" d="
			M178.288,358.171c-3.878-1.743-14.243-5.752-26.543-2.66c-5.06,1.272-9.03,3.389-11.841,5.248"/>
		<g>
			<path style="fill:#fb2c36;" d="M407.401,138.272c0.451-3.593,1.089-6.451,1.912-8.575c0.823-2.123,2.141-3.999,3.954-5.627
				c1.051-0.981,2.204-1.795,3.462-2.442c1.255-0.646,2.426-1.35,3.513-2.111c1.084-0.76,2.03-1.647,2.839-2.659
				c0.807-1.012,1.322-2.4,1.544-4.167c0.375-2.983-0.186-5.173-1.681-6.567c-1.495-1.394-3.37-2.233-5.622-2.516
				c-3.229-0.406-5.564,0.215-7.007,1.857c-1.445,1.644-2.51,3.969-3.196,6.975l-11.783-1.48c0.375-2.983,1.202-5.632,2.482-7.946
				c1.279-2.313,2.925-4.21,4.936-5.69c2.01-1.479,4.336-2.517,6.979-3.113c2.641-0.596,5.485-0.703,8.53-0.321
				c6.577,0.826,11.599,2.818,15.07,5.975c3.469,3.158,4.826,7.751,4.069,13.78c-0.245,1.95-0.658,3.629-1.236,5.041
				c-0.58,1.412-1.341,2.662-2.28,3.75c-0.941,1.088-2.056,2.077-3.342,2.967c-1.288,0.891-2.73,1.791-4.329,2.704
				c-1.47,0.868-2.672,1.691-3.604,2.47c-0.933,0.78-1.675,1.631-2.222,2.551c-0.549,0.921-0.951,1.908-1.207,2.957
				c-0.257,1.051-0.468,2.247-0.636,3.585L407.401,138.272z M404.822,155.856l1.503-11.966l12.331,1.549l-1.503,11.966
				L404.822,155.856z"/>
		</g>
		<g>
			<path style="fill:#00c950;" d="M363.377,114.857c-0.464-2.546-0.643-4.632-0.538-6.256c0.105-1.624,0.601-3.186,1.487-4.685
				c0.506-0.895,1.117-1.697,1.836-2.408c0.717-0.71,1.364-1.441,1.941-2.193c0.576-0.751,1.03-1.559,1.364-2.423
				c0.333-0.863,0.386-1.92,0.158-3.172c-0.385-2.114-1.237-3.487-2.556-4.116c-1.319-0.629-2.777-0.798-4.373-0.507
				c-2.288,0.417-3.747,1.341-4.378,2.771c-0.632,1.431-0.858,3.245-0.681,5.441l-8.351,1.522c-0.385-2.114-0.391-4.098-0.014-5.95
				c0.375-1.851,1.09-3.498,2.143-4.939c1.052-1.44,2.415-2.647,4.089-3.621c1.672-0.973,3.588-1.657,5.746-2.051
				c4.661-0.849,8.513-0.57,11.557,0.837c3.043,1.408,4.954,4.247,5.733,8.52c0.252,1.382,0.331,2.615,0.24,3.702
				c-0.092,1.087-0.342,2.102-0.749,3.046c-0.408,0.944-0.955,1.858-1.641,2.74c-0.687,0.884-1.477,1.808-2.371,2.773
				c-0.816,0.907-1.458,1.727-1.927,2.458c-0.469,0.732-0.792,1.472-0.967,2.216c-0.176,0.746-0.239,1.505-0.188,2.275
				c0.051,0.771,0.164,1.632,0.337,2.581L363.377,114.857z M365.395,127.398l-1.546-8.48l8.739-1.593l1.546,8.48L365.395,127.398z"
				/>
		</g>
	</g>
</g>
</svg>
