<svg width="31" height="34" viewBox="0 0 31 34" fill="none" xmlns="http://www.w3.org/2000/svg">
<path d="M14.413 34C14.3112 33.9999 14.2132 33.9607 14.1384 33.8904L0.130436 20.7435C0.0599003 20.6773 0.0147508 20.5878 0.00303245 20.4909C-0.00868593 20.394 0.0137892 20.296 0.0664516 20.2144L12.9883 0.188736C13.0378 0.110654 13.1118 0.0518632 13.1982 0.0219436C13.2847 -0.00797596 13.3785 -0.00727806 13.4646 0.0239053L30.7334 6.41316C30.8344 6.45054 30.9166 6.52719 30.962 6.62626C31.0074 6.72532 31.0123 6.83871 30.9756 6.94143C30.9389 7.04416 30.8635 7.1278 30.7662 7.17401C30.6688 7.22023 30.5574 7.2252 30.4564 7.18782L13.4897 0.91063L0.935521 20.3726L14.3944 33.0094L24.7374 21.9005L17.7257 13.5219L14.5167 18.8143C14.4596 18.9057 14.3694 18.9706 14.2656 18.9949C14.1618 19.0192 14.0529 19.0009 13.9622 18.944C13.8716 18.8871 13.8067 18.7962 13.7814 18.691C13.7562 18.5857 13.7727 18.4746 13.8274 18.3816L17.3288 12.6071C17.3624 12.5518 17.4084 12.5053 17.463 12.4715C17.5176 12.4377 17.5793 12.4175 17.6431 12.4126C17.7067 12.4082 17.7704 12.4189 17.8293 12.4437C17.8882 12.4686 17.9406 12.5071 17.9824 12.556L25.5903 21.6483C25.6551 21.7257 25.6896 21.8247 25.687 21.9263C25.6845 22.0279 25.6451 22.125 25.5765 22.1988L14.7078 33.8714C14.6699 33.9122 14.6242 33.9446 14.5735 33.9667C14.5228 33.9888 14.4682 34.0001 14.413 34Z" fill="#00043B"/>
</svg>
