<svg width="13" height="26" viewBox="0 0 13 26" fill="none" xmlns="http://www.w3.org/2000/svg">
<path d="M0.241784 26C0.201505 26.0004 0.161798 25.9903 0.126537 25.9706C0.08835 25.9496 0.0564471 25.9186 0.0341813 25.8809C0.0119156 25.8431 0.000105096 25.8 1.53923e-08 25.756V0.244972C-1.81394e-05 0.19345 0.016024 0.143239 0.0458334 0.101483C0.0756427 0.059726 0.117701 0.0285742 0.166024 0.0124305C0.214486 -0.00382581 0.266784 -0.00415065 0.315429 0.011534C0.364073 0.0272186 0.406566 0.0581033 0.436819 0.0997395L12.9531 17.3348C12.9725 17.3616 12.9864 17.3922 12.9938 17.4246C13.0012 17.4571 13.002 17.4907 12.9961 17.5235C12.9902 17.5563 12.9778 17.5875 12.9596 17.6152C12.9414 17.6429 12.9178 17.6666 12.8902 17.6848L0.373959 25.9576C0.335224 25.985 0.289091 25.9999 0.241784 26ZM0.483568 0.994072V25.3031L12.4115 17.4188L0.483568 0.994072Z" fill="#00043B"/>
</svg>
