<svg width="369" height="397" viewBox="0 0 369 397" fill="none" xmlns="http://www.w3.org/2000/svg">
<path d="M86.2573 139.427V145.601C86.2573 145.744 86.2008 145.88 86.1003 145.98C85.9998 146.081 85.8635 146.137 85.7214 146.137H28.4896C28.3475 146.137 28.2112 146.081 28.1107 145.98C28.0102 145.88 27.9538 145.744 27.9538 145.601V88.3782C27.9547 88.2364 28.0114 88.1006 28.1117 88.0003C28.212 87.9001 28.3478 87.8433 28.4896 87.8424H36.2448V139.122C36.2448 139.203 36.2771 139.281 36.3345 139.339C36.392 139.396 36.4699 139.429 36.5512 139.429L86.2573 139.427Z" fill="#E74646"/>
<path fill-rule="evenodd" clip-rule="evenodd" d="M36.168 81.1245C36.1682 81.023 36.2085 80.9258 36.2803 80.8541C36.352 80.7823 36.4492 80.742 36.5507 80.7418H93.7733C93.8748 80.742 93.972 80.7823 94.0437 80.8541C94.1155 80.9258 94.1558 81.023 94.156 81.1245V139.896C94.1558 139.998 94.1155 140.095 94.0437 140.167C93.972 140.238 93.8748 140.279 93.7733 140.279H36.5507C36.4492 140.279 36.352 140.238 36.2803 140.167C36.2085 140.095 36.1682 139.998 36.168 139.896V81.1245ZM36.9339 81.5071V139.513H93.3907V81.5077L36.9339 81.5071Z" fill="#787FD5"/>
<path fill-rule="evenodd" clip-rule="evenodd" d="M73.3026 107.572C72.5275 92.8073 66.4957 90.1614 64.1946 90.3043C62.5504 90.4047 60.2843 91.2009 58.2029 93.5479C56.1216 95.8949 54.206 99.8201 53.3185 106.191C52.4333 112.536 53.5549 118.196 55.4917 122.217C56.2893 123.975 57.4258 125.559 58.8363 126.878C60.0491 127.942 61.2699 128.448 62.3622 128.376C66.9857 128.069 74.0748 122.288 73.3026 107.572ZM64.1476 89.5378C67.1251 89.3554 73.286 92.6478 74.0668 107.532C74.8504 122.466 67.6288 128.795 62.4122 129.138C61.0445 129.228 59.6309 128.592 58.3309 127.452C56.843 126.065 55.6436 124.399 54.8015 122.548C52.797 118.387 51.6542 112.575 52.5589 106.083C53.4608 99.6113 55.4171 95.5323 57.6293 93.0379C59.8414 90.5435 62.2986 89.6531 64.147 89.5384" fill="#787FD5"/>
<path fill-rule="evenodd" clip-rule="evenodd" d="M68.7148 115.588C68.6039 115.468 68.4701 115.372 68.3214 115.305C68.1726 115.238 68.012 115.201 67.8489 115.198C67.6858 115.194 67.5236 115.223 67.3718 115.283C67.2201 115.343 67.082 115.433 66.9656 115.547C66.7831 115.761 66.6448 116.01 66.5587 116.278C66.4727 116.547 66.4406 116.829 66.4642 117.11C66.5465 117.736 66.789 118.33 67.1682 118.834C68.1384 120.098 69.3314 121.175 70.6884 122.01C70.4296 118.026 69.5266 116.266 68.7148 115.588ZM71.3108 122.406C71.3604 122.368 71.3999 122.318 71.4258 122.261C71.4517 122.204 71.4632 122.141 71.4594 122.079C71.2093 117.973 70.2833 115.901 69.2059 115C69.0171 114.814 68.7927 114.668 68.5461 114.57C68.2995 114.472 68.0358 114.426 67.7706 114.432C67.5055 114.439 67.2444 114.499 67.003 114.609C66.7616 114.718 66.5448 114.876 66.3656 115.071L66.6656 115.309L66.3661 115.07C65.8754 115.657 65.6362 116.413 65.7006 117.176C65.7936 117.934 66.0818 118.656 66.5371 119.27C67.6549 120.72 69.0393 121.944 70.6161 122.875C70.713 122.94 70.8163 123.003 70.9115 123.059C71.9197 123.679 72.9729 124.222 74.0623 124.685C74.8291 125.037 75.6421 125.278 76.4769 125.402C76.5763 125.407 76.6736 125.372 76.7483 125.307C76.823 125.241 76.8692 125.149 76.8772 125.05C76.8852 124.951 76.8543 124.852 76.791 124.775C76.7278 124.699 76.6372 124.649 76.5383 124.638C75.7846 124.52 75.0509 124.299 74.3583 123.979C73.3046 123.532 72.2859 123.006 71.3108 122.406Z" fill="#787FD5"/>
<path d="M129.751 58.685V64.8596C129.751 65.0018 129.694 65.138 129.594 65.2385C129.494 65.339 129.357 65.3955 129.215 65.3955H71.9839C71.8417 65.3955 71.7055 65.339 71.605 65.2385C71.5045 65.138 71.448 65.0018 71.448 64.8596V7.63642C71.4491 7.49463 71.5059 7.35895 71.6061 7.25869C71.7064 7.15843 71.8421 7.10164 71.9839 7.10059H79.7391V58.3803C79.7391 58.4616 79.7713 58.5395 79.8288 58.597C79.8863 58.6544 79.9642 58.6867 80.0454 58.6867L129.751 58.685Z" fill="#0B18EA"/>
<path fill-rule="evenodd" clip-rule="evenodd" d="M79.661 0.382655C79.6612 0.281215 79.7015 0.183973 79.7733 0.112245C79.845 0.0405158 79.9422 0.000151743 80.0437 0H137.266C137.368 0.000151743 137.465 0.0405158 137.537 0.112245C137.608 0.183973 137.649 0.281215 137.649 0.382655V59.1543C137.649 59.2557 137.608 59.353 137.537 59.4247C137.465 59.4964 137.368 59.5368 137.266 59.5369H80.0437C79.9422 59.5368 79.845 59.4964 79.7733 59.4247C79.7015 59.353 79.6612 59.2557 79.661 59.1543V0.382655ZM80.4269 0.765309V58.7716H136.884V0.765883L80.4269 0.765309Z" fill="#787FD5"/>
<path fill-rule="evenodd" clip-rule="evenodd" d="M107.891 11.4882C107.976 11.4867 108.059 11.5135 108.127 11.5644C108.195 11.6153 108.244 11.6874 108.266 11.7693L118.138 47.5564C118.151 47.6049 118.155 47.6556 118.149 47.7055C118.143 47.7554 118.127 47.8036 118.102 47.8473C118.077 47.891 118.044 47.9295 118.004 47.9604C117.965 47.9913 117.919 48.0141 117.871 48.0274C117.822 48.0408 117.772 48.0445 117.722 48.0383C117.672 48.0321 117.624 48.0161 117.58 47.9913C117.536 47.9665 117.498 47.9333 117.467 47.8936C117.436 47.854 117.413 47.8086 117.4 47.7601L107.925 13.409L99.6691 47.9798C99.6574 48.0288 99.6362 48.075 99.6067 48.1158C99.5772 48.1565 99.5399 48.1911 99.497 48.2175C99.4541 48.2438 99.4065 48.2615 99.3567 48.2694C99.307 48.2774 99.2562 48.2755 99.2073 48.2638C99.1583 48.2521 99.1121 48.2309 99.0713 48.2014C99.0306 48.1719 98.996 48.1346 98.9696 48.0917C98.9433 48.0488 98.9256 48.0012 98.9177 47.9515C98.9097 47.9017 98.9116 47.8509 98.9233 47.802L107.524 11.7831C107.544 11.7001 107.59 11.626 107.657 11.5725C107.723 11.5191 107.805 11.4894 107.891 11.4882Z" fill="#787FD5"/>
<path fill-rule="evenodd" clip-rule="evenodd" d="M101.017 39.0973C101.018 38.9958 101.058 38.8986 101.13 38.8268C101.201 38.7551 101.299 38.7148 101.4 38.7146H115.406C115.507 38.7146 115.605 38.7549 115.676 38.8268C115.748 38.8986 115.789 38.996 115.789 39.0975C115.789 39.1991 115.748 39.2965 115.676 39.3683C115.605 39.4401 115.507 39.4805 115.406 39.4805H101.398C101.297 39.4797 101.2 39.439 101.129 39.3672C101.057 39.2954 101.017 39.1984 101.017 39.0973Z" fill="#787FD5"/>
<path d="M132.067 224.039V230.214C132.067 230.356 132.01 230.492 131.91 230.593C131.809 230.693 131.673 230.749 131.531 230.749H74.3038C74.233 230.75 74.1628 230.737 74.0973 230.71C73.9987 230.67 73.9144 230.601 73.855 230.513C73.7956 230.424 73.7639 230.32 73.764 230.214V172.99C73.7639 172.883 73.7955 172.779 73.8549 172.691C73.9143 172.602 73.9987 172.534 74.0973 172.494C74.1628 172.467 74.233 172.453 74.3038 172.454H82.059V223.738C82.0589 223.778 82.0668 223.818 82.0822 223.855C82.0976 223.892 82.1201 223.926 82.1486 223.955C82.177 223.983 82.2108 224.006 82.248 224.021C82.2853 224.036 82.3251 224.044 82.3654 224.044L132.067 224.039Z" fill="#787FD5"/>
<path fill-rule="evenodd" clip-rule="evenodd" d="M81.981 165.441C81.9811 165.339 82.0215 165.242 82.0932 165.17C82.165 165.098 82.2622 165.058 82.3636 165.058H139.586C139.688 165.058 139.785 165.098 139.857 165.17C139.928 165.242 139.969 165.339 139.969 165.441V224.212C139.969 224.313 139.929 224.411 139.857 224.482C139.785 224.554 139.688 224.595 139.586 224.595H82.3636C82.2621 224.595 82.1648 224.554 82.093 224.482C82.0213 224.411 81.981 224.313 81.981 224.212V165.441ZM82.7469 165.823V223.829H139.204V165.823H82.7469Z" fill="#787FD5"/>
<path fill-rule="evenodd" clip-rule="evenodd" d="M120.021 189.521C119.246 174.756 113.214 172.11 110.913 172.253C109.269 172.353 107.003 173.149 104.921 175.496C102.84 177.843 100.924 181.769 100.037 188.139C99.1522 194.488 100.274 200.147 102.211 204.167C103.009 205.925 104.145 207.508 105.555 208.826C106.768 209.89 107.989 210.396 109.081 210.324C113.704 210.018 120.793 204.237 120.021 189.521ZM110.867 171.486C113.843 171.304 120.004 174.596 120.785 189.48C121.569 204.415 114.347 210.743 109.131 211.087C107.763 211.176 106.349 210.54 105.05 209.4C103.562 208.014 102.362 206.348 101.52 204.497C99.5154 200.336 98.3726 194.523 99.2779 188.032C100.179 181.56 102.136 177.481 104.348 174.986C106.56 172.492 109.017 171.601 110.866 171.487" fill="#787FD5"/>
<path fill-rule="evenodd" clip-rule="evenodd" d="M115.433 197.536C115.322 197.416 115.188 197.32 115.04 197.253C114.891 197.186 114.73 197.15 114.567 197.146C114.404 197.142 114.242 197.171 114.09 197.231C113.938 197.291 113.8 197.381 113.684 197.495C113.501 197.71 113.363 197.959 113.277 198.227C113.191 198.495 113.159 198.778 113.183 199.059C113.265 199.684 113.507 200.278 113.886 200.782C114.857 202.047 116.05 203.123 117.407 203.958C117.148 199.974 116.245 198.215 115.433 197.536ZM118.029 204.354C118.078 204.316 118.118 204.266 118.144 204.209C118.17 204.152 118.181 204.09 118.177 204.027C117.928 199.921 117.002 197.849 115.924 196.948C115.735 196.762 115.511 196.616 115.264 196.519C115.018 196.421 114.754 196.374 114.489 196.381C114.224 196.388 113.963 196.447 113.721 196.557C113.48 196.667 113.263 196.824 113.084 197.02L113.384 197.258L113.084 197.018C112.594 197.605 112.355 198.362 112.419 199.124C112.512 199.883 112.8 200.604 113.255 201.218C114.373 202.668 115.758 203.892 117.334 204.824C117.432 204.888 117.534 204.952 117.629 205.007C118.637 205.627 119.691 206.17 120.78 206.633C121.547 206.985 122.36 207.227 123.195 207.35C123.294 207.355 123.391 207.321 123.466 207.255C123.541 207.189 123.587 207.097 123.595 206.998C123.603 206.899 123.572 206.801 123.509 206.724C123.446 206.647 123.355 206.598 123.256 206.587C122.502 206.469 121.769 206.247 121.076 205.927C120.022 205.48 119.004 204.954 118.029 204.354Z" fill="#787FD5"/>
<path d="M175.702 140.164V146.339C175.702 146.481 175.646 146.617 175.545 146.718C175.445 146.818 175.308 146.875 175.166 146.875H117.939C117.796 146.875 117.659 146.819 117.558 146.719C117.508 146.67 117.469 146.611 117.443 146.547C117.415 146.482 117.401 146.412 117.401 146.341V89.1149C117.401 89.0442 117.415 88.9742 117.443 88.909C117.47 88.8436 117.51 88.7843 117.56 88.7344C117.61 88.6846 117.67 88.6452 117.735 88.6187C117.801 88.5922 117.871 88.5788 117.941 88.5791H125.697V139.863C125.696 139.903 125.704 139.943 125.72 139.98C125.735 140.017 125.758 140.051 125.786 140.08C125.815 140.108 125.848 140.131 125.886 140.146C125.923 140.161 125.963 140.169 126.003 140.169L175.702 140.164Z" fill="#787FD5"/>
<path fill-rule="evenodd" clip-rule="evenodd" d="M125.616 81.5651C125.616 81.4637 125.657 81.3665 125.728 81.2947C125.8 81.223 125.897 81.1826 125.999 81.1825H183.222C183.324 81.1825 183.421 81.2228 183.493 81.2945C183.565 81.3663 183.605 81.4636 183.605 81.5651V140.337C183.605 140.438 183.565 140.536 183.493 140.607C183.421 140.679 183.324 140.719 183.222 140.719H125.999C125.897 140.719 125.8 140.679 125.728 140.607C125.657 140.535 125.616 140.438 125.616 140.337V81.5651ZM126.382 81.9478V139.954H182.839V81.9484L126.382 81.9478Z" fill="#787FD5"/>
<path fill-rule="evenodd" clip-rule="evenodd" d="M163.676 109.104C162.901 94.339 156.869 91.6931 154.568 91.836C152.924 91.9364 150.657 92.7327 148.576 95.0797C146.495 97.4267 144.579 101.352 143.692 107.723C142.807 114.071 143.929 119.73 145.866 123.751C146.663 125.508 147.8 127.092 149.209 128.41C150.423 129.473 151.644 129.98 152.735 129.908C157.359 129.601 164.448 123.82 163.676 109.104ZM154.521 91.0695C157.498 90.8871 163.659 94.1795 164.44 109.063C165.224 123.998 158.002 130.326 152.786 130.67C151.418 130.759 150.004 130.124 148.705 128.983C147.217 127.597 146.017 125.931 145.175 124.08C143.17 119.919 142.027 114.107 142.933 107.615C143.834 101.143 145.791 97.0641 148.003 94.5697C150.215 92.0752 152.672 91.1849 154.521 91.0701" fill="#787FD5"/>
<path fill-rule="evenodd" clip-rule="evenodd" d="M159.088 117.119C158.977 117 158.843 116.904 158.694 116.837C158.546 116.77 158.385 116.733 158.222 116.729C158.059 116.725 157.897 116.754 157.745 116.814C157.593 116.874 157.455 116.964 157.339 117.079C157.156 117.293 157.018 117.542 156.932 117.81C156.846 118.079 156.814 118.361 156.838 118.642C156.92 119.268 157.162 119.861 157.541 120.366C158.512 121.63 159.705 122.706 161.062 123.542C160.803 119.558 159.9 117.798 159.088 117.119ZM161.683 123.938C161.733 123.9 161.773 123.85 161.799 123.793C161.824 123.736 161.836 123.673 161.832 123.611C161.582 119.505 160.656 117.433 159.579 116.532C159.39 116.346 159.166 116.199 158.919 116.102C158.673 116.004 158.409 115.958 158.144 115.964C157.879 115.971 157.618 116.031 157.376 116.141C157.135 116.25 156.918 116.408 156.739 116.603L157.039 116.841L156.739 116.602C156.249 117.189 156.009 117.945 156.074 118.707C156.167 119.466 156.455 120.187 156.91 120.801C158.028 122.252 159.412 123.476 160.989 124.407C161.087 124.471 161.189 124.535 161.284 124.591C162.292 125.21 163.345 125.754 164.435 126.216C165.202 126.569 166.015 126.81 166.849 126.934C166.949 126.938 167.046 126.904 167.121 126.838C167.196 126.773 167.242 126.681 167.25 126.581C167.258 126.482 167.227 126.384 167.164 126.307C167.1 126.23 167.01 126.181 166.911 126.17C166.157 126.052 165.423 125.83 164.731 125.511C163.677 125.063 162.659 124.537 161.683 123.938Z" fill="#787FD5"/>
<path d="M351.813 126.799L355.453 153.343L367.715 144.094L351.813 126.799Z" fill="#4285F6" stroke="#4285F6" stroke-linecap="round" stroke-linejoin="round"/>
<path fill-rule="evenodd" clip-rule="evenodd" d="M189.574 11.2863C192.928 10.7539 196.561 11.4819 199.728 12.351C203.109 13.2793 204.518 16.5591 205.098 19.4459C205.347 20.7286 205.481 22.0309 205.5 23.3373C205.509 23.8536 205.5 24.281 205.489 24.5799C205.483 24.7291 205.477 24.8467 205.472 24.927C205.47 24.9672 205.468 24.9982 205.466 25.02V25.0446V25.0532C205.466 25.0532 205.466 25.0532 205.085 25.0234L205.466 25.0544C205.462 25.1045 205.448 25.1533 205.425 25.198C205.402 25.2427 205.371 25.2825 205.332 25.3151C205.294 25.3476 205.25 25.3723 205.202 25.3877C205.154 25.4031 205.104 25.409 205.054 25.4049C205.003 25.4008 204.955 25.3869 204.91 25.364C204.865 25.3411 204.825 25.3096 204.793 25.2713C204.76 25.233 204.736 25.1886 204.72 25.1408C204.705 25.0929 204.699 25.0425 204.703 24.9924V24.9884V24.9678C204.703 24.9488 204.706 24.9207 204.708 24.8828C204.713 24.8077 204.719 24.6964 204.724 24.553C204.736 24.2661 204.744 23.8542 204.735 23.3534C204.717 22.0929 204.587 20.8366 204.347 19.5991C203.777 16.7679 202.458 13.8966 199.525 13.0917C196.376 12.2277 192.878 11.5393 189.694 12.0447C186.539 12.5455 183.677 14.219 181.762 18.1436C179.848 22.0683 180.463 25.4336 181.979 27.8718C183.513 30.3387 185.955 31.8303 187.659 31.9926C189.312 32.1516 191.143 30.956 192.641 29.2074C194.129 27.4714 195.169 25.3263 195.305 23.8255C195.318 23.4755 195.252 23.127 195.111 22.8063C194.97 22.4856 194.758 22.2011 194.491 21.9742C193.885 21.4075 193.128 21.0288 192.311 20.8842C191.923 20.8015 191.522 20.7962 191.132 20.8686C190.741 20.9411 190.369 21.0899 190.036 21.3064C189.642 21.6188 189.321 22.013 189.095 22.4616C188.869 22.9102 188.743 23.4025 188.725 23.9047C188.713 24.0056 188.662 24.0978 188.582 24.1607C188.502 24.2237 188.401 24.2525 188.3 24.2406C188.199 24.2287 188.107 24.1772 188.044 24.0975C187.981 24.0177 187.952 23.9162 187.964 23.8152C187.994 23.2056 188.155 22.6096 188.437 22.0682C188.719 21.5269 189.114 21.0529 189.597 20.6788C190.012 20.4045 190.477 20.2148 190.965 20.1206C191.454 20.0264 191.956 20.0295 192.444 20.1298C193.412 20.3004 194.309 20.7494 195.025 21.4217C195.375 21.728 195.651 22.1096 195.833 22.5379C196.014 22.9661 196.096 23.4299 196.072 23.8944C195.916 25.6103 194.773 27.8999 193.226 29.7053C191.689 31.4987 189.633 32.9513 187.588 32.7551C185.594 32.5635 182.961 30.8969 181.332 28.2763C179.684 25.6258 179.044 21.9759 181.078 17.8075C183.111 13.639 186.188 11.8232 189.574 11.2863ZM11.852 14.2253C11.9534 14.2255 12.0507 14.2658 12.1224 14.3376C12.1941 14.4093 12.2345 14.5065 12.2346 14.608V23.6276C12.2346 23.7292 12.1943 23.8266 12.1225 23.8984C12.0506 23.9702 11.9532 24.0105 11.8517 24.0105C11.7501 24.0105 11.6527 23.9702 11.5809 23.8984C11.5091 23.8266 11.4687 23.7292 11.4687 23.6276V14.608C11.4689 14.5064 11.5093 14.4091 11.5812 14.3374C11.653 14.2656 11.7504 14.2253 11.852 14.2253ZM4.30095e-07 26.2505C0.000152173 26.1491 0.0405162 26.0519 0.112245 25.9801C0.183974 25.9084 0.281215 25.868 0.382655 25.8679H9.40286C9.50443 25.8679 9.60183 25.9082 9.67365 25.98C9.74546 26.0519 9.78581 26.1493 9.78581 26.2508C9.78581 26.3524 9.74546 26.4498 9.67365 26.5216C9.60183 26.5934 9.50443 26.6338 9.40286 26.6338H0.382655C0.332356 26.6338 0.28255 26.6238 0.236087 26.6046C0.189624 26.5853 0.147415 26.5571 0.111874 26.5215C0.0763341 26.4859 0.0481599 26.4436 0.0289635 26.3971C0.00976704 26.3507 -7.49811e-05 26.3008 4.30095e-07 26.2505ZM14.2397 26.2505C14.2398 26.1491 14.2802 26.0519 14.3519 25.9801C14.4237 25.9084 14.5209 25.868 14.6223 25.8679H23.6426C23.7441 25.8679 23.8415 25.9082 23.9133 25.98C23.9851 26.0519 24.0255 26.1493 24.0255 26.2508C24.0255 26.3524 23.9851 26.4498 23.9133 26.5216C23.8415 26.5934 23.7441 26.6338 23.6426 26.6338H14.6229C14.5726 26.6338 14.5227 26.624 14.4762 26.6047C14.4296 26.5855 14.3874 26.5573 14.3518 26.5217C14.3162 26.4861 14.2879 26.4438 14.2687 26.3973C14.2495 26.3507 14.2396 26.3009 14.2397 26.2505ZM11.852 28.7748C11.9534 28.7749 12.0507 28.8153 12.1224 28.887C12.1941 28.9588 12.2345 29.056 12.2346 29.1574V38.18C12.2346 38.2815 12.1943 38.3789 12.1225 38.4507C12.0506 38.5225 11.9532 38.5629 11.8517 38.5629C11.7501 38.5629 11.6527 38.5225 11.5809 38.4507C11.5091 38.3789 11.4687 38.2815 11.4687 38.18V29.1603C11.4684 29.1098 11.4781 29.0597 11.4973 29.013C11.5164 28.9662 11.5446 28.9237 11.5802 28.8878C11.6158 28.852 11.6581 28.8236 11.7048 28.8042C11.7514 28.7848 11.8014 28.7748 11.852 28.7748ZM65.6881 253.888C72.0946 257.168 76.4162 263.813 77.7357 273.787C79.0638 283.835 74.4266 291.508 69.4963 296.646C67.3924 298.822 65.0657 300.771 62.5546 302.462C61.589 303.113 60.7761 303.605 60.2024 303.933C59.9156 304.098 59.6907 304.22 59.5352 304.306L59.4331 304.36L59.3568 304.4L59.3098 304.423L59.2977 304.43H59.2943C59.2943 304.43 59.2943 304.43 59.1222 304.085L59.2943 304.43C59.2494 304.452 59.2005 304.466 59.1503 304.469C59.1002 304.473 59.0498 304.467 59.0021 304.451C58.9543 304.435 58.9102 304.41 58.8721 304.378C58.8341 304.345 58.8028 304.305 58.7802 304.26C58.7576 304.215 58.7441 304.166 58.7404 304.116C58.7367 304.066 58.7429 304.015 58.7587 303.968C58.7745 303.92 58.7995 303.876 58.8323 303.838C58.8651 303.8 58.9051 303.768 58.95 303.746L58.9632 303.739L59.0057 303.717L59.0877 303.674L59.1749 303.628C59.3241 303.548 59.5433 303.428 59.8221 303.267C60.3803 302.946 61.1766 302.464 62.1249 301.824C64.5915 300.165 66.877 298.25 68.9438 296.113C73.7835 291.07 78.2635 283.617 76.9756 273.885C75.6796 264.084 71.4618 257.702 65.3387 254.567C59.2002 251.425 51.0606 251.497 41.8298 254.807C32.7081 258.077 28.4926 265.761 28.1759 273.122C27.8563 280.512 31.4534 287.465 37.8295 289.376C44.342 291.33 49.0877 290.074 52.1868 287.954C53.5742 287.016 54.7506 285.799 55.641 284.381C56.2732 283.456 56.6435 282.378 56.7126 281.26C56.6622 279.416 56.089 276.907 54.2727 275.336C52.4845 273.791 49.3647 273.052 43.9812 275.006C43.8857 275.041 43.7804 275.036 43.6884 274.993C43.5964 274.95 43.5253 274.872 43.4907 274.777C43.4561 274.682 43.4608 274.576 43.5038 274.484C43.5469 274.392 43.6247 274.321 43.7202 274.286C49.2403 272.283 52.6916 272.957 54.7741 274.758C56.8279 276.533 57.4257 279.303 57.4785 281.24C57.4153 282.507 57.0055 283.732 56.2938 284.782C55.348 286.292 54.0975 287.588 52.6222 288.587C49.3177 290.848 44.3294 292.126 37.612 290.11C30.7851 288.061 27.0847 280.694 27.4135 273.09C27.7433 265.46 32.1223 257.475 41.5757 254.086C50.9177 250.737 59.2966 250.614 65.6881 253.888ZM135.776 283.228C135.852 283.233 135.923 283.261 135.983 283.308C136.042 283.354 136.087 283.417 136.11 283.489L141.145 298.699C141.164 298.758 141.169 298.82 141.158 298.882C141.148 298.943 141.123 299 141.086 299.05C141.049 299.099 141 299.139 140.944 299.165C140.888 299.192 140.827 299.204 140.765 299.202L128.137 298.672C128.073 298.669 128.01 298.651 127.955 298.617C127.9 298.584 127.854 298.537 127.822 298.482C127.789 298.426 127.771 298.363 127.77 298.299C127.768 298.234 127.783 298.17 127.813 298.113L135.406 283.433C135.441 283.366 135.495 283.311 135.56 283.274C135.626 283.238 135.701 283.222 135.776 283.228ZM128.769 297.931L140.243 298.413L135.668 284.593L128.769 297.931ZM197.37 297.286C195.935 297.286 194.532 297.711 193.339 298.509C192.146 299.306 191.216 300.439 190.667 301.765C190.118 303.09 189.974 304.549 190.254 305.956C190.534 307.364 191.225 308.656 192.239 309.671C193.254 310.686 194.547 311.376 195.954 311.656C197.361 311.936 198.82 311.793 200.146 311.244C201.472 310.694 202.605 309.765 203.402 308.572C204.199 307.378 204.624 305.976 204.624 304.541C204.625 303.588 204.437 302.645 204.072 301.764C203.708 300.884 203.173 300.084 202.5 299.41C201.826 298.737 201.026 298.202 200.146 297.838C199.266 297.473 198.322 297.285 197.37 297.285V297.286ZM189.349 304.541C189.349 302.955 189.819 301.404 190.7 300.085C191.582 298.766 192.834 297.738 194.3 297.131C195.766 296.524 197.378 296.365 198.934 296.674C200.49 296.984 201.919 297.748 203.041 298.869C204.163 299.991 204.927 301.42 205.236 302.976C205.546 304.532 205.387 306.145 204.78 307.61C204.173 309.076 203.145 310.329 201.826 311.21C200.507 312.091 198.956 312.562 197.37 312.562C195.242 312.562 193.202 311.717 191.698 310.212C190.194 308.708 189.349 306.668 189.349 304.541Z" fill="#787FD5"/>
<path d="M329.925 39.0486C331.264 39.0486 332.573 38.6516 333.686 37.9077C334.799 37.1639 335.667 36.1066 336.179 34.8696C336.692 33.6326 336.826 32.2715 336.565 30.9583C336.303 29.6451 335.659 28.4389 334.712 27.4922C333.765 26.5454 332.559 25.9007 331.246 25.6395C329.933 25.3783 328.571 25.5123 327.335 26.0247C326.098 26.5371 325.04 27.4048 324.296 28.518C323.553 29.6313 323.156 30.9401 323.156 32.279C323.156 34.0744 323.869 35.7963 325.138 37.0658C326.408 38.3354 328.13 39.0486 329.925 39.0486Z" fill="#FABC05"/>
<path d="M349.348 342.312C350.973 342.312 352.563 341.83 353.915 340.927C355.267 340.024 356.321 338.74 356.943 337.237C357.565 335.735 357.728 334.082 357.411 332.488C357.093 330.893 356.31 329.428 355.161 328.278C354.011 327.129 352.546 326.346 350.951 326.028C349.357 325.711 347.704 325.874 346.201 326.496C344.699 327.118 343.415 328.172 342.512 329.524C341.609 330.876 341.126 332.465 341.126 334.091C341.126 336.272 341.993 338.363 343.534 339.905C345.076 341.446 347.167 342.312 349.348 342.312Z" fill="#E74646"/>
<path d="M63.718 366.022C65.3196 366.022 66.8852 365.547 68.2168 364.657C69.5485 363.767 70.5864 362.502 71.1993 361.023C71.8122 359.543 71.9726 357.915 71.6601 356.344C71.3477 354.773 70.5764 353.33 69.4439 352.198C68.3115 351.065 66.8686 350.294 65.2978 349.982C63.727 349.669 62.0988 349.83 60.6191 350.443C59.1395 351.055 57.8748 352.093 56.985 353.425C56.0952 354.757 55.6203 356.322 55.6203 357.924C55.6203 360.072 56.4734 362.131 57.992 363.65C59.5107 365.168 61.5703 366.022 63.718 366.022Z" fill="#4285F6"/>
<path d="M149.727 44.8033C146.663 45.1859 148.961 55.5256 147.047 55.9083C145.515 55.9083 136.708 38.6762 133.644 40.208C130.58 41.7397 141.303 50.5471 139.388 52.4621C137.473 54.3771 130.197 40.5912 127.517 42.5056C124.837 44.42 137.09 55.1424 135.942 56.2915C134.793 57.4406 124.451 45.9524 122.922 47.8668C121.393 49.7812 134.027 58.2059 133.261 59.355C132.648 60.273 126.368 56.93 123.304 55.143C123.304 55.143 122.157 54.7603 122.157 55.9089C122.157 57.4877 133.864 63.7868 134.794 64.7162L139.772 69.6942C140.747 70.6695 146.776 72.8696 147.047 73.1404L147.813 73.9062C158.79 88.3301 171.255 113.76 181.511 117.178C182.659 117.56 183.806 117.178 186.489 116.412C188.634 115.799 212.146 106.455 224.017 101.86L221.337 83.8622C209.978 90.1154 188.407 103.392 186.873 102.626C186.461 102.417 186.076 102.16 185.725 101.86C175.003 91.521 154.243 71.748 153.559 69.6936C153 68.0184 153.941 64.3324 153.559 61.6521C153.176 59.3573 152.411 55.525 152.027 53.6106C151.649 51.7335 152.007 44.5187 149.727 44.8033Z" fill="white"/>
<path fill-rule="evenodd" clip-rule="evenodd" d="M134.839 40.7707C134.336 40.4672 134.018 40.4495 133.815 40.5504C133.708 40.5984 133.616 40.6765 133.552 40.7753C133.497 40.8742 133.469 40.9862 133.472 41.0995C133.508 41.5322 133.641 41.9513 133.86 42.326C134.596 43.6061 135.44 44.8203 136.384 45.9552L136.729 46.3935C137.608 47.4701 138.43 48.5919 139.192 49.7542C139.519 50.2492 139.771 50.7907 139.937 51.3606C140.018 51.5941 140.034 51.8448 139.985 52.0868C139.936 52.3288 139.824 52.5534 139.659 52.7374C139.48 52.9207 139.236 53.0265 138.98 53.0323C138.732 53.0313 138.488 52.97 138.27 52.8539C137.734 52.553 137.249 52.1705 136.831 51.7203C135.922 50.8104 134.868 49.5018 133.801 48.1754L133.441 47.7291C132.378 46.3444 131.22 45.0352 129.975 43.8107C129.565 43.4063 129.09 43.072 128.571 42.8211C128.446 42.7461 128.302 42.7066 128.155 42.7066C128.009 42.7066 127.865 42.7461 127.739 42.8211C127.564 42.9462 127.472 43.1504 127.534 43.544C127.661 44.1024 127.885 44.6345 128.194 45.1165C129.164 46.6415 130.251 48.0878 131.447 49.4421C131.893 49.9699 132.347 50.4983 132.79 51.0141C133.622 51.9819 134.413 52.9032 135.033 53.688C135.442 54.1847 135.811 54.7134 136.135 55.2691C136.249 55.4657 136.333 55.6785 136.383 55.9002C136.411 56.0163 136.41 56.1375 136.38 56.2531C136.35 56.3687 136.292 56.4751 136.211 56.5628C136.125 56.6422 136.022 56.7001 135.91 56.7317C135.798 56.7634 135.68 56.7678 135.565 56.7447C135.347 56.7041 135.136 56.6293 134.94 56.5232C134.4 56.2254 133.885 55.8815 133.404 55.4952C132.478 54.785 131.366 53.8315 130.219 52.8487C129.922 52.5946 129.624 52.3387 129.325 52.084C128.022 50.932 126.655 49.8548 125.23 48.8575C124.777 48.5381 124.284 48.2812 123.763 48.0939C123.368 47.9763 123.257 48.0607 123.219 48.1066C123.173 48.1639 123.12 48.3148 123.303 48.6992C123.569 49.1922 123.899 49.6478 124.284 50.0543C125.469 51.3134 126.728 52.5011 128.054 53.6112C128.464 53.9663 128.878 54.3214 129.284 54.6696C130.293 55.5348 131.258 56.3626 132.013 57.0665C132.465 57.4719 132.887 57.9096 133.276 58.3763C133.411 58.5407 133.524 58.7229 133.61 58.9178C133.659 59.0205 133.682 59.1337 133.677 59.2475C133.671 59.3612 133.638 59.4719 133.58 59.5696C133.484 59.6883 133.36 59.7807 133.218 59.8378C133.077 59.8949 132.923 59.915 132.772 59.896C132.431 59.8737 132.095 59.8097 131.77 59.7055C130.836 59.4063 129.924 59.042 129.041 58.6155C127.015 57.6729 124.691 56.3982 123.153 55.5021C123.131 55.4963 123.1 55.4894 123.062 55.4831C122.973 55.4669 122.882 55.4649 122.793 55.4774C122.729 55.4833 122.67 55.5121 122.626 55.5583C122.556 55.6627 122.525 55.7885 122.539 55.9134C122.554 55.9648 122.578 56.0132 122.609 56.0563C122.704 56.1945 122.813 56.3229 122.934 56.4395C123.339 56.8299 123.772 57.1909 124.228 57.5198C125.327 58.3367 126.81 59.2942 128.328 60.2373C129.386 60.8937 130.456 61.5391 131.425 62.1237C131.849 62.379 132.252 62.6222 132.626 62.8494C133.241 63.2223 133.778 63.5533 134.192 63.8207C134.501 64.0059 134.793 64.217 135.066 64.4517L140.044 69.4297C140.199 69.568 140.369 69.6885 140.551 69.7888C140.797 69.9357 141.104 70.098 141.452 70.269C142.149 70.6132 142.995 70.9832 143.825 71.3355C144.341 71.5541 144.842 71.7629 145.3 71.9522C145.581 72.0669 145.844 72.1782 146.082 72.2781C146.391 72.4077 146.656 72.5219 146.857 72.6125C146.955 72.6578 147.043 72.6992 147.111 72.7353C147.145 72.7531 147.179 72.772 147.21 72.7927C147.249 72.817 147.286 72.8455 147.319 72.8776L148.103 73.6618L148.119 73.6825C151.625 78.2898 155.29 84.0291 158.979 89.8033C161.071 93.0797 163.17 96.367 165.252 99.4638C167.825 103.413 170.665 107.183 173.75 110.747C176.522 113.826 179.168 115.993 181.635 116.815C182.195 116.98 182.789 116.991 183.356 116.849C183.996 116.729 184.778 116.505 185.847 116.197L186.385 116.044C186.901 115.897 188.75 115.207 191.452 114.169C194.141 113.136 197.652 111.766 201.466 110.273C203.868 109.333 206.391 108.343 208.905 107.357C214.25 105.259 219.559 103.177 223.592 101.614L221.038 84.4645C217.57 86.3847 213.236 88.9003 208.831 91.4584C206.052 93.0722 203.245 94.7021 200.607 96.2098C197.104 98.2125 193.903 99.999 191.479 101.238C190.268 101.857 189.241 102.344 188.467 102.652C188.144 102.787 187.811 102.897 187.472 102.984C187.345 103.015 187.216 103.035 187.085 103.041C186.953 103.05 186.82 103.025 186.699 102.97C186.547 102.894 186.311 102.758 186.082 102.61C185.858 102.472 185.648 102.313 185.454 102.135C184.151 100.879 182.7 99.4833 181.155 97.9974C176.342 93.3682 170.615 87.8596 165.608 82.9442C162.299 79.6977 159.302 76.707 157.087 74.3961C155.981 73.2424 155.066 72.2557 154.406 71.4904C154.076 71.1083 153.805 70.7773 153.603 70.5059C153.434 70.2957 153.295 70.0626 153.191 69.8135C153.035 69.2578 152.967 68.6808 152.99 68.1039C152.994 67.4642 153.047 66.7488 153.105 66.0179L153.116 65.8762C153.28 64.4929 153.299 63.0962 153.174 61.7089C152.792 59.4181 152.026 55.5996 151.645 53.684C151.535 52.9348 151.467 52.18 151.441 51.4231V51.3864C151.387 50.457 151.326 49.4152 151.208 48.4405C151.133 47.5877 150.943 46.7491 150.643 45.9477C150.55 45.7081 150.405 45.4924 150.218 45.3167C150.158 45.263 150.087 45.2231 150.01 45.1999C149.933 45.1767 149.852 45.1707 149.772 45.1824C149.274 45.245 148.897 45.716 148.656 46.7314C148.429 47.927 148.322 49.1421 148.336 50.3589C148.331 50.6652 148.328 50.9745 148.324 51.2814C148.313 52.2986 148.301 53.2928 148.222 54.0994C148.189 54.5688 148.094 55.0318 147.94 55.4763C147.883 55.6695 147.778 55.8451 147.635 55.9862C147.491 56.1273 147.314 56.2293 147.119 56.2823L147.083 56.2898H147.044C146.924 56.2872 146.805 56.2551 146.7 56.1962C146.603 56.1431 146.511 56.0796 146.428 56.0069C146.222 55.8259 146.033 55.6283 145.86 55.416C145.454 54.9324 144.964 54.252 144.418 53.4546C143.853 52.6284 143.213 51.6503 142.532 50.6148C141.909 49.6664 141.255 48.6694 140.599 47.6964C139.367 45.7983 138.007 43.986 136.53 42.2721C136.036 41.6979 135.467 41.1929 134.839 40.7707ZM123.308 55.1429L123.429 54.7798L123.466 54.7924L123.5 54.8125C125.027 55.7029 127.351 56.9793 129.366 57.9168C130.215 58.3278 131.091 58.6793 131.989 58.9689C132.251 59.0544 132.523 59.1081 132.798 59.129C132.825 59.129 132.848 59.129 132.867 59.129C132.811 59.0297 132.747 58.9353 132.675 58.8467C132.311 58.4118 131.917 58.0036 131.495 57.6253C130.752 56.9329 129.806 56.1217 128.804 55.2611C128.394 54.91 127.975 54.5509 127.557 54.1877C126.206 53.057 124.923 51.8464 123.716 50.5626C123.282 50.1026 122.911 49.5862 122.615 49.0273C122.482 48.8176 122.412 48.574 122.414 48.3257C122.416 48.0775 122.49 47.8351 122.626 47.6275C122.798 47.4481 123.02 47.3261 123.264 47.278C123.507 47.2299 123.76 47.2583 123.986 47.359C124.579 47.5671 125.14 47.8557 125.655 48.2167C127.107 49.2314 128.5 50.3278 129.827 51.5005C130.131 51.7593 130.434 52.0169 130.732 52.275C131.876 53.2561 132.97 54.1906 133.874 54.8865C134.319 55.2434 134.793 55.562 135.292 55.8388C135.396 55.8943 135.505 55.939 135.618 55.9725C135.579 55.8531 135.528 55.7378 135.467 55.6283C135.161 55.1119 134.816 54.6202 134.434 54.1579C133.823 53.3851 133.05 52.4856 132.226 51.5269C131.781 51.0106 131.32 50.4731 130.863 49.9315C129.639 48.5436 128.526 47.0612 127.536 45.498C127.178 44.9352 126.923 44.3137 126.781 43.6621C126.714 43.3939 126.728 43.112 126.819 42.8512C126.911 42.5905 127.078 42.3624 127.298 42.1952C127.529 42.0437 127.796 41.9561 128.072 41.941C128.347 41.926 128.622 41.9842 128.868 42.1097C129.47 42.3937 130.02 42.776 130.495 43.2411C131.769 44.4914 132.954 45.829 134.042 47.2443L134.398 47.6866C135.473 49.0228 136.499 50.2964 137.377 51.1747C137.736 51.5642 138.152 51.897 138.611 52.162C138.718 52.2226 138.838 52.257 138.962 52.2624C138.992 52.2625 139.021 52.2562 139.049 52.2441C139.076 52.2319 139.101 52.2141 139.121 52.1918C139.224 52.0892 139.287 51.9079 139.197 51.5396C139.049 51.0487 138.829 50.5825 138.545 50.1558C137.798 49.0175 136.992 47.9189 136.13 46.8645L135.786 46.4274C134.81 45.254 133.938 43.9979 133.179 42.6731C132.902 42.1896 132.741 41.6483 132.709 41.092C132.707 40.8413 132.773 40.5947 132.899 40.3783C133.038 40.1559 133.237 39.9778 133.473 39.8649C133.763 39.7518 134.078 39.7153 134.387 39.759C134.695 39.8027 134.988 39.9251 135.235 40.1144C135.928 40.5741 136.555 41.1263 137.099 41.7558C138.602 43.4973 139.985 45.3393 141.239 47.269C141.911 48.2672 142.565 49.2637 143.184 50.2074C143.855 51.2303 144.484 52.1907 145.054 53.0231C145.598 53.8171 146.071 54.4711 146.451 54.9244C146.595 55.103 146.754 55.2695 146.925 55.4223C146.96 55.4521 146.996 55.4795 147.035 55.5044C147.127 55.4218 147.195 55.3152 147.231 55.1963C147.357 54.8183 147.434 54.4255 147.46 54.0277C147.536 53.2578 147.547 52.3118 147.559 51.3032C147.562 50.99 147.566 50.6721 147.572 50.3491C147.557 49.0771 147.671 47.8068 147.911 46.5576C148.16 45.5175 148.645 44.5525 149.678 44.4234C149.862 44.3984 150.049 44.4127 150.227 44.4653C150.405 44.5179 150.57 44.6077 150.711 44.7286C150.99 44.9801 151.207 45.2924 151.346 45.6414C151.678 46.5113 151.889 47.4229 151.971 48.3504C152.092 49.3486 152.154 50.4111 152.209 51.3336V51.3801C152.233 52.1014 152.296 52.821 152.399 53.5354V53.5383C152.782 55.4516 153.546 59.285 153.932 61.589V61.5976C154.067 63.0295 154.051 64.4718 153.883 65.9003L153.87 66.0793C153.812 66.8142 153.758 67.5021 153.755 68.1084C153.733 68.6015 153.787 69.095 153.917 69.5714C153.997 69.7429 154.098 69.904 154.218 70.051C154.403 70.3 154.658 70.6149 154.983 70.9901C155.63 71.7399 156.532 72.7158 157.638 73.8661C159.843 76.166 162.834 79.1504 166.142 82.3952C171.147 87.3077 176.87 92.8123 181.683 97.4409C183.232 98.9291 184.682 100.326 185.986 101.584L185.991 101.588C186.147 101.729 186.315 101.855 186.494 101.965C186.696 102.095 186.896 102.21 187.021 102.274C187.027 102.274 187.039 102.274 187.057 102.274C187.138 102.269 187.218 102.256 187.296 102.236C187.598 102.159 187.894 102.06 188.182 101.94C188.923 101.644 189.923 101.171 191.128 100.555C193.534 99.3249 196.723 97.5459 200.225 95.5437C202.851 94.0418 205.654 92.4153 208.429 90.8021C213.047 88.1207 217.597 85.4799 221.146 83.5254L221.628 83.2597L224.435 102.106L224.148 102.216C220.081 103.791 214.65 105.921 209.178 108.067C206.663 109.054 204.141 110.044 201.738 110.985C197.922 112.476 194.411 113.847 191.718 114.881C189.038 115.914 187.144 116.619 186.587 116.778L186.054 116.931C184.991 117.237 184.168 117.473 183.489 117.601C182.794 117.768 182.067 117.747 181.383 117.539C178.721 116.652 175.964 114.359 173.171 111.258C170.062 107.664 167.2 103.863 164.607 99.8814C162.502 96.749 160.392 93.4451 158.296 90.1619C154.629 84.4186 151.002 78.739 147.518 74.1558L146.788 73.4266L146.747 73.4037C146.697 73.3773 146.625 73.3428 146.531 73.2998C146.344 73.2143 146.088 73.1048 145.779 72.9751C145.549 72.8776 145.285 72.7691 145.005 72.6533C144.546 72.4622 144.034 72.2517 143.518 72.0314C142.685 71.678 141.823 71.2993 141.108 70.9471C140.75 70.771 140.424 70.5989 140.153 70.4376C139.916 70.3053 139.696 70.1457 139.496 69.9621L134.522 64.9858C134.287 64.7913 134.038 64.6143 133.776 64.4563C133.375 64.1953 132.843 63.8688 132.227 63.4965C131.857 63.271 131.455 63.0289 131.034 62.7748C130.064 62.1896 128.986 61.5396 127.924 60.8816C126.402 59.9367 124.897 58.9649 123.772 58.1279C123.284 57.7759 122.822 57.3896 122.389 56.9719C122.231 56.8178 122.09 56.648 121.966 56.4653C121.85 56.302 121.783 56.1089 121.774 55.9088C121.758 55.6007 121.855 55.2974 122.046 55.0552C122.206 54.872 122.426 54.752 122.667 54.7167C122.84 54.6902 123.016 54.6922 123.188 54.7224C123.255 54.7333 123.312 54.7465 123.352 54.7574L123.402 54.7712L123.418 54.7758H123.423H123.426L123.308 55.1429Z" fill="#787FD5"/>
<path fill-rule="evenodd" clip-rule="evenodd" d="M302.788 102.529L302.823 102.597C302.846 102.643 302.88 102.712 302.925 102.799C303.015 102.978 303.147 103.24 303.318 103.581C303.657 104.261 304.146 105.249 304.747 106.482C305.948 108.949 307.592 112.404 309.367 116.34C312.914 124.208 316.992 134.034 319.084 141.808C321.176 149.582 322.702 161.241 323.899 171.555C324.164 173.827 324.411 176.033 324.645 178.119C324.943 180.776 325.219 183.24 325.48 185.399C325.946 189.27 326.355 192.105 326.73 193.313C327.155 194.678 328.244 196.162 329.623 197.604C331.003 199.01 332.488 200.311 334.064 201.494L333.6 202.103C331.992 200.896 330.477 199.569 329.068 198.134C327.667 196.67 326.477 195.079 325.998 193.544C325.597 192.252 325.181 189.333 324.718 185.494C324.457 183.334 324.18 180.863 323.881 178.201C323.647 176.115 323.399 173.91 323.135 171.646C321.938 161.319 320.416 149.72 318.341 142.01C316.267 134.299 312.211 124.521 308.666 116.658C306.895 112.73 305.254 109.284 304.055 106.822C303.456 105.59 302.965 104.604 302.629 103.927C302.483 103.634 302.364 103.399 302.278 103.227L288.537 110.473C288.628 110.672 288.759 110.956 288.925 111.316C289.269 112.066 289.762 113.143 290.359 114.453C291.557 117.074 293.174 120.627 294.852 124.355C298.204 131.8 301.816 139.972 302.803 142.788C304.77 148.398 310.972 172.386 312.485 178.242C313.512 181.826 314.718 185.357 316.099 188.821C316.769 190.556 317.39 192.109 317.844 193.229C318.074 193.789 318.257 194.239 318.386 194.548C318.45 194.704 318.501 194.825 318.534 194.906L318.585 195.029C318.585 195.029 318.586 195.029 318.233 195.177L318.585 195.029C318.604 195.073 318.614 195.119 318.615 195.167C318.606 195.686 318.536 196.202 318.405 196.705C318.361 196.904 318.314 197.107 318.264 197.322C318.166 197.742 318.06 198.197 317.959 198.703C317.561 200.61 317.464 202.567 317.672 204.503C317.737 205.134 317.842 205.761 317.986 206.378V206.382C318.415 208.196 319.041 209.958 319.854 211.636C320.117 212.2 320.384 212.745 320.638 213.265C321.075 214.158 321.476 214.975 321.752 215.685C322.098 216.661 322.696 217.528 323.486 218.197C323.729 218.395 324.006 218.547 324.304 218.645C324.461 218.704 324.633 218.712 324.796 218.669C324.999 218.589 325.183 218.346 325.264 217.906C325.34 217.439 325.301 216.96 325.153 216.511C324.954 216.027 324.729 215.554 324.478 215.094C324.131 214.421 323.697 213.613 323.27 212.824C323.005 212.337 322.745 211.86 322.508 211.427C322.362 211.158 322.222 210.906 322.101 210.682C321.94 210.387 321.804 210.135 321.705 209.948C321.655 209.854 321.614 209.776 321.582 209.712C321.555 209.659 321.53 209.605 321.508 209.549C321.499 209.522 321.492 209.495 321.489 209.467C321.405 208.74 321.393 208.007 321.455 207.278C321.425 206.64 321.356 206.005 321.247 205.375V205.366C321.175 204.867 321.097 204.371 321.036 204C321.006 203.815 320.979 203.66 320.963 203.552L320.942 203.427L320.935 203.384C320.919 203.292 320.938 203.197 320.987 203.118C321.037 203.039 321.113 202.98 321.203 202.954C321.292 202.927 321.389 202.934 321.473 202.973C321.558 203.012 321.626 203.081 321.663 203.166L322.475 205.019L322.001 205.226C322.001 205.235 322.001 205.242 322.005 205.251C322.12 205.919 322.193 206.593 322.223 207.269C322.224 207.286 322.224 207.303 322.223 207.32C322.165 207.987 322.173 208.657 322.246 209.322C322.251 209.334 322.259 209.349 322.269 209.369C322.297 209.426 322.336 209.499 322.384 209.59C322.482 209.774 322.613 210.022 322.776 210.317L323.183 211.062C323.42 211.496 323.681 211.975 323.946 212.462C324.374 213.251 324.81 214.065 325.162 214.745C325.431 215.24 325.671 215.75 325.881 216.272C326.072 216.843 326.119 217.453 326.021 218.047C325.991 218.332 325.889 218.606 325.723 218.84C325.557 219.075 325.334 219.263 325.074 219.386C324.754 219.492 324.408 219.491 324.089 219.382C323.699 219.257 323.336 219.061 323.017 218.803C322.118 218.05 321.436 217.07 321.04 215.966C320.775 215.283 320.4 214.518 319.975 213.652C319.717 213.127 319.442 212.565 319.161 211.96C318.325 210.233 317.681 208.42 317.24 206.553C317.089 205.904 316.98 205.247 316.911 204.585C316.696 202.572 316.796 200.537 317.209 198.555C317.312 198.039 317.424 197.559 317.523 197.131C317.572 196.921 317.618 196.724 317.658 196.541C317.766 196.121 317.831 195.691 317.851 195.258L317.828 195.201C317.794 195.118 317.743 194.997 317.679 194.841C317.549 194.53 317.364 194.077 317.136 193.516C316.68 192.393 316.056 190.836 315.385 189.095C313.993 185.604 312.777 182.045 311.743 178.432C310.223 172.552 304.033 148.613 302.079 143.042C301.104 140.266 297.514 132.133 294.153 124.67C292.475 120.944 290.858 117.392 289.661 114.772C289.063 113.463 288.571 112.386 288.227 111.636C288.055 111.261 287.92 110.968 287.829 110.769L287.689 110.465C287.689 110.465 287.689 110.465 288.036 110.304L287.689 110.465C287.648 110.376 287.643 110.274 287.675 110.181C287.707 110.088 287.773 110.011 287.861 109.966L302.267 102.368C302.312 102.345 302.361 102.33 302.411 102.326C302.462 102.321 302.513 102.326 302.561 102.342C302.609 102.357 302.654 102.382 302.693 102.415C302.731 102.448 302.763 102.488 302.786 102.533L302.788 102.529Z" fill="#787FD5"/>
<path fill-rule="evenodd" clip-rule="evenodd" d="M347.474 197.471C347.57 197.444 347.673 197.454 347.761 197.501C347.848 197.548 347.914 197.627 347.945 197.722L368.139 260.771C368.17 260.867 368.162 260.971 368.116 261.061C368.071 261.151 367.992 261.22 367.896 261.252L323.386 276.161C323.337 276.177 323.286 276.183 323.235 276.18C323.184 276.176 323.135 276.162 323.089 276.139C323.044 276.115 323.003 276.083 322.971 276.044C322.938 276.005 322.913 275.96 322.898 275.911L302.704 210.766C302.689 210.718 302.684 210.666 302.689 210.616C302.694 210.565 302.709 210.516 302.733 210.471C302.757 210.426 302.79 210.386 302.83 210.354C302.87 210.322 302.915 210.299 302.964 210.284L317.516 206.097C317.564 206.083 317.615 206.078 317.665 206.084C317.715 206.09 317.763 206.105 317.807 206.13C317.851 206.154 317.89 206.187 317.921 206.226C317.953 206.266 317.976 206.311 317.99 206.359C318.003 206.407 318.008 206.458 318.002 206.508C317.996 206.558 317.981 206.606 317.956 206.65C317.932 206.694 317.899 206.733 317.86 206.764C317.821 206.795 317.776 206.819 317.727 206.833L303.552 210.914L323.516 275.311L367.296 260.643L347.332 198.311L333.941 202.167L322.235 205.539L321.737 205.677C321.639 205.704 321.534 205.691 321.446 205.64C321.358 205.59 321.293 205.507 321.266 205.409C321.239 205.311 321.252 205.207 321.302 205.118C321.352 205.03 321.435 204.965 321.533 204.938L322.027 204.801H322.031L333.73 201.432L347.474 197.471Z" fill="#787FD5"/>
<path fill-rule="evenodd" clip-rule="evenodd" d="M319.345 227.231C319.351 227.182 319.368 227.133 319.392 227.09C319.417 227.046 319.451 227.008 319.49 226.977C319.53 226.946 319.576 226.924 319.624 226.91C319.673 226.897 319.723 226.894 319.773 226.9L319.725 227.28L319.677 227.659C319.627 227.653 319.579 227.637 319.535 227.612C319.491 227.587 319.453 227.554 319.422 227.514C319.391 227.474 319.369 227.429 319.356 227.381C319.342 227.332 319.339 227.281 319.345 227.231ZM326.153 228.031C324.62 227.677 323.026 227.395 321.818 227.201C321.212 227.104 320.701 227.029 320.343 226.979C320.163 226.953 320.021 226.933 319.924 226.921L319.813 226.907L319.783 226.903H319.774L319.726 227.283L319.677 227.662H319.686L319.714 227.665L319.823 227.68L320.236 227.737C320.591 227.787 321.097 227.861 321.697 227.958C322.841 228.141 324.326 228.404 325.77 228.73C325.781 228.772 325.793 228.814 325.804 228.858L325.807 228.869C326.278 230.573 327.161 232.135 328.377 233.418C328.824 233.881 329.349 234.261 329.929 234.54C330.393 234.775 330.921 234.85 331.432 234.754C332.385 234.524 332.804 233.576 332.698 232.598C332.6 231.991 332.371 231.413 332.029 230.903C331.687 230.392 331.24 229.961 330.716 229.639C330.706 229.632 330.694 229.625 330.683 229.619C329.316 228.878 327.841 228.356 326.313 228.073C326.285 228.066 326.258 228.059 326.239 228.055H326.236L326.184 228.042L326.153 228.031ZM326.624 228.914C327.907 229.196 329.145 229.656 330.302 230.28C330.729 230.54 331.096 230.889 331.378 231.302C331.66 231.716 331.851 232.185 331.938 232.678C332.02 233.431 331.696 233.9 331.254 234.007C330.909 234.062 330.555 234.004 330.245 233.84C329.749 233.599 329.3 233.272 328.918 232.874C327.854 231.752 327.068 230.395 326.624 228.914Z" fill="#787FD5"/>
<path fill-rule="evenodd" clip-rule="evenodd" d="M340.199 221.863C337.466 219.695 334.577 218.948 332.063 219.728C329.38 220.558 327.598 223.571 326.775 227.576C325.971 231.884 326.116 236.315 327.198 240.562C328.375 244.935 330.668 248.927 333.853 252.147C336.959 255.203 340.586 256.855 343.968 255.842C344.989 255.536 345.952 254.572 346.764 253.047C347.668 251.22 348.275 249.262 348.563 247.244C349.372 242.252 348.922 237.136 347.252 232.362C345.474 227.596 342.931 224.03 340.199 221.863ZM340.675 221.263C343.539 223.535 346.155 227.23 347.971 232.094C349.688 236.993 350.152 242.244 349.321 247.368C349.02 249.468 348.385 251.507 347.442 253.407C346.591 255.005 345.499 256.183 344.19 256.576C340.412 257.708 336.502 255.827 333.319 252.692C330.034 249.375 327.67 245.26 326.458 240.752C325.346 236.393 325.199 231.844 326.025 227.423C326.862 223.349 328.731 219.958 331.837 218.997C334.667 218.12 337.812 218.992 340.675 221.263Z" fill="#787FD5"/>
<path fill-rule="evenodd" clip-rule="evenodd" d="M280.849 298.138C280.858 298.188 280.857 298.239 280.847 298.288C280.836 298.337 280.816 298.384 280.787 298.425C280.759 298.467 280.722 298.502 280.68 298.529C280.638 298.557 280.59 298.575 280.541 298.584C278.918 298.881 277.281 299.087 275.635 299.202C275.536 299.206 275.439 299.171 275.365 299.104C275.291 299.038 275.246 298.945 275.239 298.846C275.232 298.747 275.264 298.649 275.328 298.573C275.392 298.496 275.483 298.448 275.582 298.438C277.198 298.325 278.807 298.122 280.401 297.83C280.45 297.821 280.501 297.822 280.551 297.832C280.6 297.843 280.647 297.863 280.689 297.891C280.73 297.92 280.766 297.957 280.793 297.999C280.821 298.041 280.84 298.089 280.849 298.138Z" fill="#787FD5"/>
<path d="M261.717 379.021H251.594L251.541 378.701C251.235 376.865 244.052 333.727 243.718 329.248C243.239 322.823 243.182 310.431 243.144 301.383C243.126 297.299 243.11 293.773 243.058 291.967C242.896 286.322 240.979 272.449 240.959 272.309V272.299L240.041 263.975L263.104 262.151L263.134 262.534C263.16 262.879 263.778 270.999 263.774 272.261C263.774 272.949 263.194 277.883 262.583 283.104C262.067 287.521 261.532 292.089 261.427 293.443C261.315 294.892 262.241 303.322 263.136 311.471C264.005 319.388 264.827 326.865 264.769 328.485C264.633 332.258 263.938 347.844 263.926 348.001L261.717 379.021ZM252.243 378.255H261.003L263.16 347.954C263.167 347.806 263.862 332.225 263.997 328.455C264.054 326.886 263.193 319.09 262.369 311.551C261.427 302.989 260.539 294.901 260.658 293.38C260.764 292.014 261.299 287.439 261.817 283.014C262.399 278.041 263 272.899 263.002 272.254C263.002 271.182 262.518 264.636 262.39 262.974L240.883 264.675L241.717 272.208C241.763 272.542 243.659 286.3 243.822 291.943C243.874 293.758 243.89 297.29 243.908 301.377C243.948 310.414 244.002 322.789 244.482 329.19C244.797 333.436 251.569 374.205 252.243 378.255Z" fill="#787FD5"/>
<path fill-rule="evenodd" clip-rule="evenodd" d="M266.305 267.845L287.348 272.219L287.32 272.557L287.315 272.621L287.299 272.809C287.286 272.974 287.266 273.218 287.242 273.529C287.193 274.153 287.127 275.049 287.051 276.138C286.901 278.318 286.719 281.279 286.592 284.39C286.465 287.501 286.389 290.761 286.455 293.547C286.519 296.352 286.726 298.616 287.134 299.776C288.216 302.31 289.435 304.784 290.785 307.186C292.657 310.695 295.03 314.992 297.474 319.37C298.885 321.898 300.318 324.454 301.69 326.9C305.066 332.918 308.069 338.272 309.435 340.91C311.381 344.663 313.451 352.104 315.034 358.563C315.827 361.802 316.498 364.808 316.972 367.004C317.209 368.102 317.397 368.998 317.525 369.62C317.589 369.931 317.64 370.173 317.672 370.338L317.71 370.526L317.721 370.583V370.586C317.721 370.586 317.722 370.586 317.346 370.661L317.721 370.586L317.802 370.994L307.255 372.202L307.125 372.006L306.839 371.571C306.65 371.284 306.373 370.866 306.018 370.329C305.309 369.254 304.29 367.709 303.05 365.829C300.57 362.067 297.207 356.959 293.676 351.576C286.62 340.815 278.881 328.944 276.19 324.543V324.538C271.084 315.922 267.6 306.444 265.91 296.572C265.196 292.282 265.29 285.193 265.556 279.208C265.689 276.209 265.867 273.476 266.011 271.493C266.083 270.501 266.147 269.696 266.193 269.14C266.216 268.862 266.234 268.646 266.246 268.499L266.26 268.332L266.266 268.274C266.266 268.274 266.266 268.274 266.647 268.307L266.266 268.273L266.305 267.845ZM266.994 268.769C266.983 268.89 266.971 269.035 266.957 269.202C266.912 269.757 266.848 270.558 266.776 271.547C266.632 273.525 266.456 276.251 266.322 279.241C266.055 285.235 265.968 292.245 266.666 296.445C268.339 306.223 271.789 315.611 276.844 324.146C279.528 328.537 287.255 340.391 294.316 351.157C297.846 356.539 301.208 361.647 303.688 365.408C304.928 367.289 305.948 368.834 306.657 369.908C307.011 370.445 307.288 370.864 307.477 371.15L307.635 371.39L316.888 370.331C316.859 370.183 316.82 369.996 316.774 369.774C316.646 369.154 316.459 368.261 316.222 367.165C315.75 364.973 315.08 361.974 314.289 358.744C312.705 352.265 310.651 344.918 308.754 341.263C307.392 338.636 304.4 333.302 301.029 327.291C299.655 324.842 298.218 322.28 296.802 319.742C294.358 315.364 291.983 311.061 290.105 307.545C288.736 305.11 287.501 302.601 286.406 300.03C285.951 298.737 285.748 296.352 285.683 293.564C285.617 290.753 285.692 287.478 285.821 284.358C285.949 281.238 286.132 278.272 286.283 276.086C286.358 274.996 286.425 274.095 286.473 273.47C286.494 273.207 286.511 272.992 286.524 272.83L266.994 268.769Z" fill="#787FD5"/>
<path d="M218.165 85.1169C218.165 85.1169 224.734 79.9536 236.929 77.1425C249.125 74.3314 289.475 75.266 296.043 86.0566C302.61 96.8472 304.957 102.477 304.957 102.477C304.957 102.477 297.451 114.206 291.819 115.145C286.187 116.083 288.067 118.897 288.067 118.897C288.067 118.897 286.747 141.845 287.447 148.443C289.269 165.67 296.393 178.057 299.045 201.48C301.581 223.875 293.224 254.955 292.758 264.338C292.336 272.785 292.29 278.413 292.29 278.413C292.29 278.413 274.461 282.165 270.239 280.289C267.424 277.005 266.486 269.498 264.609 269.498C262.733 269.498 260.386 278.881 258.98 280.757C257.103 282.163 239.744 282.633 238.336 281.695C236.929 280.756 226.481 238.503 227.888 208.477C229.296 178.451 238.86 169.265 238.806 139.071C238.771 119.836 234.583 102.01 233.643 101.07C232.236 101.07 228.013 103.415 222.852 103.415C219.571 102.007 216.287 87.4627 218.165 85.1169Z" fill="#34A853"/>
<path d="M232.769 98.9498C232.769 98.9498 227.248 102.297 222.714 103.347C225.583 103.912 233.645 101.07 233.645 101.07L232.769 98.9498Z" fill="#787FD5"/>
<path fill-rule="evenodd" clip-rule="evenodd" d="M254.263 62.9865C254.263 62.9865 254.263 62.9865 253.888 62.9068L254.111 63.2183L254.104 63.2235L254.085 63.2367L254.012 63.2877C253.948 63.3319 253.856 63.395 253.736 63.4742C253.499 63.6325 253.156 63.8545 252.734 64.1098C251.681 64.7516 250.584 65.3173 249.451 65.8028C248.183 66.372 246.829 66.7268 245.444 66.8527C244.797 66.9272 244.141 66.8604 243.522 66.6571C242.903 66.4538 242.336 66.1187 241.859 65.6749C240.949 64.6956 240.321 63.488 240.043 62.1805C239.737 60.8549 239.591 59.4975 239.607 58.1371C239.612 57.0035 239.675 55.8709 239.796 54.7437C239.818 54.5314 239.838 54.3421 239.854 54.17C239.874 53.9795 239.892 53.8155 239.905 53.676C239.915 53.5688 239.922 53.4856 239.925 53.4236C239.888 53.3938 239.841 53.3594 239.782 53.3175L239.65 53.2257C239.544 53.1528 239.42 53.0679 239.309 52.983C239.128 52.8524 238.961 52.7026 238.812 52.5361C238.643 52.3543 238.54 52.1213 238.518 51.8741C238.522 51.7081 238.553 51.5439 238.611 51.3881C238.668 51.216 238.744 51.0112 238.836 50.7869C239.02 50.3371 239.272 49.7829 239.532 49.2115C239.55 49.172 239.568 49.133 239.585 49.0934C240.047 48.1489 240.451 47.1778 240.797 46.1853C241.018 45.0521 241.082 43.8938 240.986 42.7431C240.986 42.6806 240.982 42.6175 240.981 42.5538C240.894 40.9325 240.99 39.3064 241.268 37.7067C241.732 35.8196 242.456 34.0059 243.418 32.3174C243.843 31.5251 244.248 30.8418 244.547 30.3565C244.695 30.1138 244.818 29.9199 244.903 29.7868C244.947 29.7203 244.98 29.6686 245.003 29.6336L245.029 29.5935L245.036 29.5831L245.039 29.5797L245.104 29.4822L245.212 29.4374C247.407 28.535 249.242 28.3658 250.76 28.8224C252.27 29.3199 253.526 30.3877 254.259 31.7982C255.918 34.6667 256.445 39.1174 256.439 43.7046C256.383 48.0889 256.019 52.4637 255.349 56.7969C255.078 58.6328 254.808 60.1766 254.604 61.2655C254.501 61.8099 254.418 62.2407 254.358 62.5339C254.328 62.6808 254.305 62.7944 254.289 62.8707L254.271 62.9579L254.266 62.9802L254.263 62.9865ZM245.613 30.1006C247.654 29.2802 249.268 29.1724 250.539 29.555C251.863 29.997 252.96 30.9395 253.597 32.1808C255.146 34.86 255.679 39.1289 255.673 43.7029C255.615 48.0499 255.253 52.3876 254.589 56.6839C254.32 58.506 254.05 60.0429 253.849 61.1238C253.748 61.6642 253.664 62.0904 253.606 62.3813C253.581 62.5064 253.56 62.6062 253.544 62.679C253.487 62.7192 253.408 62.772 253.315 62.8362C253.086 62.9894 252.751 63.2051 252.34 63.4541C251.319 64.0765 250.255 64.6254 249.156 65.0966C247.967 65.6316 246.699 65.9664 245.401 66.0874C244.862 66.1552 244.315 66.1049 243.797 65.9401C243.279 65.7753 242.803 65.4998 242.402 65.1327C241.591 64.2514 241.032 63.1668 240.787 61.9941C240.497 60.7288 240.358 59.4334 240.374 58.1354C240.379 57.0278 240.441 55.9212 240.559 54.82C240.58 54.6198 240.6 54.4305 240.617 54.2595C240.638 54.0627 240.656 53.8889 240.67 53.7483C240.683 53.6078 240.692 53.4988 240.694 53.4081C240.696 53.3618 240.695 53.3155 240.691 53.2693C240.689 53.2405 240.685 53.2119 240.678 53.1838C240.666 53.1318 240.644 53.0824 240.614 53.0381C240.562 52.9661 240.5 52.9017 240.431 52.8465C240.369 52.7954 240.298 52.7432 240.227 52.6927L240.072 52.5843C239.973 52.516 239.873 52.4472 239.771 52.3697C239.635 52.2731 239.51 52.1621 239.398 52.0387C239.341 51.9858 239.303 51.9169 239.286 51.8414C239.299 51.7674 239.319 51.6947 239.344 51.6239C239.39 51.4805 239.459 51.2969 239.548 51.0801C239.726 50.6464 239.971 50.1048 240.232 49.5311C240.258 49.4737 240.284 49.4192 240.309 49.363C240.779 48.3986 241.19 47.4062 241.539 46.3913C241.78 45.2026 241.853 43.986 241.756 42.777C241.756 42.6961 241.752 42.6146 241.75 42.5326C241.663 40.9677 241.754 39.398 242.02 37.8535C242.469 36.0416 243.167 34.3003 244.092 32.6788C244.51 31.9026 244.906 31.2319 245.199 30.7558C245.345 30.5177 245.465 30.3284 245.548 30.1993C245.572 30.162 245.594 30.1287 245.613 30.1006ZM253.889 62.9062L254.111 63.2177L254.232 63.1311L254.263 62.986L253.889 62.9062Z" fill="#787FD5"/>
<path d="M242.559 35.2162C242.559 35.2162 240.214 32.4017 241.621 27.2419C243.029 22.0821 248.702 19.4087 251.943 18.3278C257.573 16.4513 271.647 16.9211 279.624 23.4911C287.6 30.061 287.129 41.3158 287.129 41.3158C287.129 41.3158 287.129 53.0444 289.944 59.1439C292.759 65.2435 302.142 75.0927 304.487 81.1939C306.833 87.2952 306.833 100.898 297.919 107.936C296.98 114.504 290.882 121.541 286.19 122.01C282.437 126.702 273.992 128.11 270.708 127.64C267.423 127.17 258.51 125.294 254.287 116.849C251.472 115.911 245.364 104.766 246.313 93.3912C247.251 82.133 249.128 74.6274 250.066 66.1797C251.004 57.7321 251.004 45.537 249.596 38.9694C248.189 32.4017 246.781 31.4637 245.844 31.4637C244.906 31.4637 243.029 33.3403 242.559 35.2162Z" fill="#787FD5"/>
<path d="M264.548 393.442C265.553 390.106 264.642 384.677 263.043 378.813C253.724 379.704 252.01 378.389 249.181 378.521C248.604 379.239 248.894 380.552 245.916 381.479C241.718 382.78 237.214 384.404 233.077 385.093C230.13 385.582 227.094 389.346 228.602 392.441C228.702 392.9 228.955 394.066 229.009 394.356C229.064 394.699 229.205 395.023 229.418 395.297H229.397C229.711 395.683 230.098 396.003 230.536 396.24C230.974 396.476 231.454 396.624 231.949 396.674C233.915 397.052 257.43 397.248 263.043 396.363C263.487 396.273 263.637 395.313 263.768 394.768H263.764L264.215 393.482C264.331 393.472 264.449 393.456 264.548 393.442ZM263.197 394.781C260.856 394.839 254.309 395.16 246.541 395.25C242.045 395.302 234.233 395.326 230.297 395.307C230.083 395.224 229.897 395.081 229.763 394.895C229.628 394.71 229.549 394.49 229.535 394.261C229.512 394.133 229.45 393.839 229.382 393.511C231.403 395.174 237.741 394.21 240.904 394.21H250.829C254.303 394.21 260.619 393.881 263.628 393.557L263.197 394.781Z" fill="#787FD5"/>
<path d="M325.215 380.799L324.297 378.151C324.315 378.15 324.332 378.152 324.348 378.158C324.259 376.478 323.417 375.538 322.841 374.518C322.265 373.499 320.758 372.257 320.093 371.019C319.428 369.78 319.739 367.473 318.834 367.163C317.929 366.853 314.376 368.759 311.141 369.155C307.906 369.55 305.473 368.325 305.025 368.8C304.576 369.275 305.598 371.592 306 371.946C306.401 372.301 306.089 377.088 306.265 379.26C306.442 381.432 304.493 386.129 303.784 386.882C303.075 387.636 300.149 387.813 300.149 387.813C300.149 387.813 296 388.042 294.605 389.353C294.139 389.819 293.794 390.391 293.599 391.02C293.404 391.648 293.364 392.315 293.483 392.962C293.602 393.61 293.877 394.219 294.283 394.736C294.689 395.254 295.215 395.666 295.816 395.936C296.856 396.366 297.976 396.569 299.101 396.53C299.637 396.53 300.08 396.497 300.326 396.473C303.954 396.567 312.133 396.545 314.23 394.537C316.639 392.23 318.203 390.677 319.581 389.784C320.812 388.986 323.334 388.022 324.343 386.526C325.746 384.451 326.08 382.067 325.215 380.799ZM320.712 379.26C316.517 380.218 311.925 387.772 309.045 390.983C307.36 392.864 303.734 394.904 300.477 395.923V395.917C300.45 395.917 297.686 396.254 296.051 395.451C295.681 395.271 295.341 395.034 295.044 394.749C296.523 395.38 299.066 395.444 302.542 393.885C307.284 391.758 312.381 385.375 313.134 384.268C313.888 383.161 317.609 379.304 318.833 378.728C320.375 378.108 322.047 377.882 323.697 378.072L324.375 380.023C323.287 379.331 321.985 379.06 320.712 379.261V379.26Z" fill="#787FD5"/>
</svg>
